<svg width="13" height="13" viewBox="0 0 13 13" fill="none" xmlns="http://www.w3.org/2000/svg">
<g id="align-left-variant-on">
<g id="align-left-variant-off">
<g id="Vector">
<path d="M3.14929 10.0944C3.14929 9.81826 3.37315 9.59441 3.64929 9.59441H12.2493C12.5254 9.59441 12.7493 9.81826 12.7493 10.0944C12.7493 10.3705 12.5254 10.5944 12.2493 10.5944H3.64929C3.37315 10.5944 3.14929 10.3705 3.14929 10.0944Z" fill="white"/>
<path d="M3.14929 7.6945C3.14929 7.41836 3.37315 7.1945 3.64929 7.1945H12.2493C12.5254 7.1945 12.7493 7.41836 12.7493 7.6945C12.7493 7.97065 12.5254 8.1945 12.2493 8.1945H3.64929C3.37315 8.1945 3.14929 7.97065 3.14929 7.6945Z" fill="white"/>
<path d="M3.14929 12.4946C3.14929 12.2184 3.37315 11.9946 3.64929 11.9946H9.84929C10.1254 11.9946 10.3493 12.2184 10.3493 12.4946C10.3493 12.7707 10.1254 12.9946 9.84929 12.9946H3.64929C3.37315 12.9946 3.14929 12.7707 3.14929 12.4946Z" fill="white"/>
<path d="M0.748901 1.49451C0.748901 1.21836 0.972759 0.994507 1.2489 0.994507C1.52504 0.994507 1.7489 1.21836 1.7489 1.49451V12.4945C1.7489 12.7706 1.52504 12.9945 1.2489 12.9945C0.972759 12.9945 0.748901 12.7706 0.748901 12.4945V1.49451Z" fill="white"/>
</g>
</g>
</g>
</svg>
