<svg width="13" height="13" viewBox="0 0 13 13" fill="none" xmlns="http://www.w3.org/2000/svg">
<g id="align-left-variant-off">
<g id="align-left-variant-off_2">
<g id="Vector">
<path d="M2.64929 9.73589C2.64929 9.45974 2.87315 9.23589 3.14929 9.23589H11.7493C12.0254 9.23589 12.2493 9.45974 12.2493 9.73589C12.2493 10.012 12.0254 10.2359 11.7493 10.2359H3.14929C2.87315 10.2359 2.64929 10.012 2.64929 9.73589Z" fill="#1679F9"/>
<path d="M2.64929 7.33598C2.64929 7.05984 2.87315 6.83598 3.14929 6.83598H11.7493C12.0254 6.83598 12.2493 7.05984 12.2493 7.33598C12.2493 7.61213 12.0254 7.83598 11.7493 7.83598H3.14929C2.87315 7.83598 2.64929 7.61213 2.64929 7.33598Z" fill="#1679F9"/>
<path d="M2.64929 12.136C2.64929 11.8599 2.87315 11.636 3.14929 11.636H9.34929C9.62543 11.636 9.84929 11.8599 9.84929 12.136C9.84929 12.4122 9.62543 12.636 9.34929 12.636H3.14929C2.87315 12.636 2.64929 12.4122 2.64929 12.136Z" fill="#1679F9"/>
<path d="M0.248901 1.13599C0.248901 0.859844 0.472759 0.635986 0.748901 0.635986C1.02504 0.635986 1.2489 0.859844 1.2489 1.13599V12.136C1.2489 12.4121 1.02504 12.636 0.748901 12.636C0.472759 12.636 0.248901 12.4121 0.248901 12.136V1.13599Z" fill="#1679F9"/>
</g>
</g>
</g>
</svg>
