<svg width="13" height="13" viewBox="0 0 13 13" fill="none" xmlns="http://www.w3.org/2000/svg">
<g id="align-right-variant-on">
<g id="align-right-variant-off">
<g id="Vector">
<path d="M10.3489 9.73064C10.3489 9.45449 10.125 9.23064 9.8489 9.23064H1.2489C0.972759 9.23064 0.748901 9.45449 0.748901 9.73064C0.748901 10.0068 0.972759 10.2306 1.2489 10.2306H9.8489C10.125 10.2306 10.3489 10.0068 10.3489 9.73064Z" fill="white"/>
<path d="M10.3489 7.33073C10.3489 7.05459 10.125 6.83073 9.8489 6.83073H1.2489C0.972759 6.83073 0.748901 7.05459 0.748901 7.33073C0.748901 7.60688 0.972759 7.83073 1.2489 7.83073H9.8489C10.125 7.83073 10.3489 7.60688 10.3489 7.33073Z" fill="white"/>
<path d="M10.3489 12.1308C10.3489 11.8546 10.125 11.6308 9.8489 11.6308H3.6489C3.37276 11.6308 3.1489 11.8546 3.1489 12.1308C3.1489 12.4069 3.37276 12.6308 3.6489 12.6308H9.8489C10.125 12.6308 10.3489 12.4069 10.3489 12.1308Z" fill="white"/>
<path d="M12.7493 1.13074C12.7493 0.854595 12.5254 0.630737 12.2493 0.630737C11.9732 0.630737 11.7493 0.854595 11.7493 1.13074V12.1307C11.7493 12.4069 11.9732 12.6307 12.2493 12.6307C12.5254 12.6307 12.7493 12.4069 12.7493 12.1307V1.13074Z" fill="white"/>
</g>
</g>
</g>
</svg>
