<svg width="13" height="13" viewBox="0 0 13 13" fill="none" xmlns="http://www.w3.org/2000/svg">
<g id="align-right-variant-off">
<g id="align-right-variant-off_2">
<g id="Vector">
<path d="M9.84884 9.37212C9.84884 9.09597 9.62498 8.87212 9.34884 8.87212H0.74884C0.472698 8.87212 0.24884 9.09597 0.24884 9.37212C0.24884 9.64826 0.472698 9.87212 0.74884 9.87212H9.34884C9.62498 9.87212 9.84884 9.64826 9.84884 9.37212Z" fill="#1679F9"/>
<path d="M9.84884 6.97221C9.84884 6.69607 9.62498 6.47221 9.34884 6.47221H0.74884C0.472698 6.47221 0.24884 6.69607 0.24884 6.97221C0.24884 7.24836 0.472698 7.47221 0.74884 7.47221H9.34884C9.62498 7.47221 9.84884 7.24836 9.84884 6.97221Z" fill="#1679F9"/>
<path d="M9.84884 11.7723C9.84884 11.4961 9.62498 11.2723 9.34884 11.2723H3.14884C2.8727 11.2723 2.64884 11.4961 2.64884 11.7723C2.64884 12.0484 2.8727 12.2723 3.14884 12.2723H9.34884C9.62498 12.2723 9.84884 12.0484 9.84884 11.7723Z" fill="#1679F9"/>
<path d="M12.2492 0.772217C12.2492 0.496075 12.0254 0.272217 11.7492 0.272217C11.4731 0.272217 11.2492 0.496075 11.2492 0.772217V11.7722C11.2492 12.0484 11.4731 12.2722 11.7492 12.2722C12.0254 12.2722 12.2492 12.0484 12.2492 11.7722V0.772217Z" fill="#1679F9"/>
</g>
</g>
</g>
</svg>
