<svg width="10" height="11" viewBox="0 0 10 11" fill="none" xmlns="http://www.w3.org/2000/svg">
<g id="comfort-reading-variant-on">
<g id="comfort-reading-variant-off">
<path id="Vector 33" d="M1.07446 1.48152L0.893967 1.85409L1.09355 0.908521H8.35134L8.54528 1.77693L8.43135 1.51211C8.31293 1.23687 8.04205 1.05852 7.74241 1.05852H5.77916C5.36495 1.05852 5.02916 1.39431 5.02916 1.80852V8.95695C5.02916 9.29306 5.25278 9.58814 5.57637 9.67902L6.03748 9.80852H3.46787L3.93077 9.67906C4.25476 9.58846 4.47877 9.2932 4.47877 8.95678V1.80852C4.47877 1.39431 4.14299 1.05852 3.72877 1.05852H1.74943C1.46197 1.05852 1.1998 1.22282 1.07447 1.48152L1.56944 1.72132L1.07446 1.48152ZM1.91866 10.2418C1.91855 10.2418 1.91845 10.2418 1.91835 10.2419L1.89504 10.1585L1.91835 10.2419L1.91866 10.2418ZM9.04993 2.94989L8.85051 3.03568L9.04993 2.94989L9.04969 2.94933C9.04977 2.94951 9.04985 2.9497 9.04993 2.94989Z" stroke="white" stroke-width="1.1" stroke-linejoin="round"/>
</g>
</g>
</svg>
