<svg width="10" height="10" viewBox="0 0 10 10" fill="none" xmlns="http://www.w3.org/2000/svg">
<g id="comfort-reading-variant-off">
<g id="comfort-reading-variant-off_2">
<path id="Vector 33" d="M1.57446 1.123L1.39397 1.49557L1.59355 0.55H8.85134L9.04528 1.41841L8.93135 1.15359C8.81293 0.878349 8.54205 0.7 8.24241 0.7H6.27916C5.86495 0.7 5.52916 1.03579 5.52916 1.45V8.59843C5.52916 8.93454 5.75278 9.22962 6.07637 9.3205L6.53748 9.45H3.96787L4.43077 9.32054C4.75476 9.22994 4.97877 8.93468 4.97877 8.59826V1.45C4.97877 1.03579 4.64299 0.7 4.22877 0.7H2.24943C1.96197 0.7 1.6998 0.864303 1.57447 1.123L2.06944 1.3628L1.57446 1.123ZM2.41866 9.88325C2.41855 9.88328 2.41845 9.88331 2.41835 9.88334L2.39504 9.8L2.41835 9.88334L2.41866 9.88325ZM9.54993 2.59137L9.35051 2.67716L9.54993 2.59136L9.54969 2.59081C9.54977 2.59099 9.54985 2.59118 9.54993 2.59137Z" stroke="#1679F9" stroke-width="1.1" stroke-linejoin="round"/>
</g>
</g>
</svg>
