<svg width="48" height="48" viewBox="0 0 48 48" fill="none" xmlns="http://www.w3.org/2000/svg">
<path fill-rule="evenodd" clip-rule="evenodd" d="M25.9701 19.9679C26.0542 20.0098 26.1564 20.0522 26.3055 20.114C26.3384 20.1277 26.3735 20.1422 26.4113 20.158C26.6101 20.2408 26.8517 20.3442 27.1294 20.483C27.3826 20.6096 27.5447 20.824 27.6416 21.0164C27.7419 21.2158 27.7986 21.4415 27.8138 21.6681C27.8441 22.1191 27.7128 22.6579 27.2983 23.0724C27.0376 23.3331 26.6871 23.6853 26.3999 24.0874C26.1039 24.5018 25.9403 24.8811 25.9403 25.1935C25.9403 26.0493 26.2548 26.6435 26.6899 27.0302C27.1369 27.4276 27.7514 27.6402 28.3871 27.6402C29.4847 27.6402 30.215 27.2087 30.6781 26.6941C31.1629 26.1554 31.35 25.5325 31.35 25.1935C31.35 24.6728 31.348 24.2236 31.2364 23.7216C31.1267 23.2279 30.9037 22.6563 30.4269 21.9411C29.9186 21.1786 29.0889 20.5936 28.0964 20.0974C27.9273 20.0128 27.5926 19.8974 27.215 19.8014C26.8331 19.7042 26.4966 19.6499 26.3226 19.6499C26.3226 19.6499 26.297 19.6513 26.2494 19.6767C26.2002 19.7029 26.1427 19.7465 26.0871 19.8058C26.036 19.8602 25.9963 19.9177 25.9701 19.9679Z" fill="#ECF3FF"/>
<path fill-rule="evenodd" clip-rule="evenodd" d="M16.6798 19.9679C16.7639 20.0098 16.8661 20.0522 17.0152 20.114C17.0481 20.1277 17.0833 20.1422 17.121 20.158C17.3198 20.2408 17.5614 20.3442 17.8391 20.483C18.0923 20.6096 18.2544 20.824 18.3513 21.0164C18.4517 21.2158 18.5084 21.4415 18.5236 21.6681C18.5538 22.1191 18.4226 22.6579 18.008 23.0724C17.7473 23.3331 17.3968 23.6853 17.1096 24.0874C16.8136 24.5018 16.65 24.8811 16.65 25.1935C16.65 26.0493 16.9645 26.6435 17.3996 27.0302C17.8467 27.4276 18.4611 27.6402 19.0968 27.6402C20.1944 27.6402 20.9247 27.2087 21.3879 26.6941C21.8726 26.1554 22.0597 25.5325 22.0597 25.1935C22.0597 24.6728 22.0577 24.2236 21.9461 23.7216C21.8364 23.2279 21.6134 22.6563 21.1366 21.9411C20.6283 21.1786 19.7986 20.5936 18.8061 20.0974C18.637 20.0128 18.3023 19.8974 17.9248 19.8014C17.5428 19.7042 17.2064 19.6499 17.0323 19.6499C17.0323 19.6499 17.0067 19.6513 16.9591 19.6767C16.9099 19.7029 16.8524 19.7465 16.7968 19.8058C16.7457 19.8602 16.706 19.9177 16.6798 19.9679Z" fill="#ECF3FF"/>
<path fill-rule="evenodd" clip-rule="evenodd" d="M25.1386 18.9168C25.3978 18.6404 25.8154 18.3501 26.3225 18.3501C26.6646 18.3501 27.1296 18.4384 27.5354 18.5417C27.9457 18.646 28.3852 18.7886 28.6777 18.9348C29.7498 19.4709 30.8158 20.1812 31.5085 21.2202C32.064 22.0533 32.3571 22.7721 32.5054 23.4397C32.65 24.0903 32.65 24.6667 32.6499 25.1734L32.6499 25.1936C32.6499 25.8868 32.3209 26.8123 31.6444 27.564C30.9462 28.3397 29.87 28.9404 28.387 28.9404C27.4743 28.9404 26.5404 28.6369 25.8262 28.002C25.1 27.3565 24.6403 26.4023 24.6403 25.1936C24.6403 24.4737 24.9928 23.8208 25.342 23.332C25.6959 22.8364 26.1142 22.4182 26.3704 22.162L26.379 22.1534C26.4806 22.0518 26.5268 21.9051 26.5167 21.7553C26.5125 21.6932 26.4992 21.6455 26.487 21.6158C26.2735 21.5113 26.0833 21.4299 25.9112 21.3582C25.8822 21.3461 25.8527 21.3339 25.823 21.3216C25.6722 21.2592 25.5163 21.1947 25.3867 21.1299C25.2312 21.0521 25.0328 20.9366 24.8795 20.7449C24.7075 20.5299 24.6403 20.2826 24.6403 20.0324C24.6403 19.5969 24.8851 19.1872 25.1386 18.9168ZM26.473 21.5884C26.473 21.5884 26.4738 21.5894 26.4752 21.5916C26.4737 21.5897 26.473 21.5885 26.473 21.5884ZM25.9701 19.9681C26.0541 20.01 26.1563 20.0524 26.3055 20.1142C26.3383 20.1279 26.3735 20.1424 26.4112 20.1582C26.6101 20.241 26.8517 20.3444 27.1293 20.4832C27.3825 20.6098 27.5447 20.8241 27.6415 21.0166C27.7419 21.216 27.7986 21.4417 27.8138 21.6683C27.8441 22.1193 27.7128 22.6581 27.2983 23.0726C27.0376 23.3333 26.687 23.6855 26.3998 24.0876C26.1038 24.502 25.9403 24.8813 25.9403 25.1936C25.9403 26.0495 26.2547 26.6437 26.6898 27.0304C27.1369 27.4278 27.7513 27.6404 28.387 27.6404C29.4847 27.6404 30.215 27.2089 30.6781 26.6943C31.1629 26.1556 31.3499 25.5327 31.3499 25.1936C31.3499 24.673 31.348 24.2238 31.2364 23.7217C31.1267 23.2281 30.9037 22.6565 30.4268 21.9413C29.9185 21.1788 29.0888 20.5938 28.0963 20.0976C27.9272 20.013 27.5925 19.8976 27.215 19.8016C26.833 19.7044 26.4966 19.6501 26.3225 19.6501C26.3226 19.6501 26.3225 19.6501 26.3225 19.6501C26.3213 19.6502 26.297 19.6515 26.2494 19.6769C26.2002 19.7031 26.1426 19.7467 26.087 19.8059C26.036 19.8604 25.9962 19.9179 25.9701 19.9681Z" fill="#1679F9"/>
<path fill-rule="evenodd" clip-rule="evenodd" d="M15.8484 18.9168C16.1075 18.6404 16.5251 18.3501 17.0322 18.3501C17.3743 18.3501 17.8393 18.4384 18.2451 18.5417C18.6554 18.646 19.0949 18.7886 19.3874 18.9348C20.4595 19.4709 21.5256 20.1812 22.2182 21.2202C22.7737 22.0533 23.0668 22.7721 23.2151 23.4397C23.3597 24.0903 23.3597 24.6667 23.3597 25.1734L23.3597 25.1936C23.3597 25.8868 23.0306 26.8123 22.3541 27.564C21.6559 28.3397 20.5798 28.9404 19.0967 28.9404C18.1841 28.9404 17.2501 28.6369 16.5359 28.002C15.8097 27.3565 15.35 26.4023 15.35 25.1936C15.35 24.4737 15.7025 23.8208 16.0517 23.332C16.4057 22.8364 16.8239 22.4182 17.0802 22.162L17.0887 22.1534C17.1903 22.0518 17.2365 21.9051 17.2264 21.7553C17.2223 21.6932 17.2089 21.6455 17.1967 21.6158C16.9832 21.5113 16.793 21.4299 16.6209 21.3582C16.5919 21.3461 16.5624 21.3339 16.5327 21.3216C16.3819 21.2592 16.226 21.1947 16.0964 21.1299C15.9409 21.0521 15.7426 20.9366 15.5892 20.7449C15.4172 20.5299 15.35 20.2826 15.35 20.0324C15.35 19.5969 15.5948 19.1872 15.8484 18.9168ZM17.1827 21.5884C17.1828 21.5884 17.1835 21.5894 17.1849 21.5916C17.1834 21.5897 17.1827 21.5885 17.1827 21.5884ZM16.6798 19.9681C16.7638 20.01 16.866 20.0524 17.0152 20.1142C17.048 20.1279 17.0832 20.1424 17.1209 20.1582C17.3198 20.241 17.5614 20.3444 17.8391 20.4832C18.0922 20.6098 18.2544 20.8241 18.3512 21.0166C18.4516 21.216 18.5083 21.4417 18.5235 21.6683C18.5538 22.1193 18.4225 22.6581 18.008 23.0726C17.7473 23.3333 17.3968 23.6855 17.1095 24.0876C16.8135 24.502 16.65 24.8813 16.65 25.1936C16.65 26.0495 16.9645 26.6437 17.3996 27.0304C17.8466 27.4278 18.4611 27.6404 19.0967 27.6404C20.1944 27.6404 20.9247 27.2089 21.3878 26.6943C21.8726 26.1556 22.0597 25.5327 22.0597 25.1936C22.0597 24.673 22.0577 24.2238 21.9461 23.7217C21.8364 23.2281 21.6134 22.6565 21.1366 21.9413C20.6282 21.1788 19.7985 20.5938 18.8061 20.0976C18.6369 20.013 18.3023 19.8976 17.9247 19.8016C17.5428 19.7044 17.2063 19.6501 17.0322 19.6501C17.0323 19.6501 17.0323 19.6501 17.0322 19.6501C17.031 19.6502 17.0067 19.6515 16.9591 19.6769C16.9099 19.7031 16.8523 19.7467 16.7968 19.8059C16.7457 19.8604 16.7059 19.9179 16.6798 19.9681Z" fill="#1679F9"/>
</svg>
