<svg width="48" height="48" viewBox="0 0 48 48" fill="none" xmlns="http://www.w3.org/2000/svg">
<path d="M24 15.1499C19.0375 15.1499 15 19.1874 15 24.1499C15 29.1124 19.0375 33.1499 24 33.1499C28.9625 33.1499 33 29.1124 33 24.1499C33 19.1874 28.9625 15.1499 24 15.1499ZM24 16.5345C28.2148 16.5345 31.6154 19.9352 31.6154 24.1499C31.6154 28.3633 28.2147 31.7653 24 31.7653C19.7853 31.7653 16.3846 28.3633 16.3846 24.1499C16.3846 19.9351 19.7853 16.5345 24 16.5345ZM24 18.9576C23.6173 18.9576 23.3077 19.2672 23.3077 19.6499V24.1499C23.3077 24.3406 23.3875 24.5109 23.5132 24.6367C24.4111 25.5128 25.3129 26.4323 26.2067 27.3302C26.4771 27.6006 26.9098 27.6006 27.1803 27.3302C27.4507 27.0597 27.4507 26.627 27.1803 26.3566L24.6923 23.8686V19.6497C24.6923 19.267 24.3826 18.9574 24 18.9574L24 18.9576Z" fill="#C74693"/>
</svg>
