<svg width="48" height="48" viewBox="0 0 48 48" fill="none" xmlns="http://www.w3.org/2000/svg">
<path fill-rule="evenodd" clip-rule="evenodd" d="M28.6838 20.2321L29.5402 19.3732L29.6086 19.4718C30.5241 20.7924 31.0566 22.368 31.0566 24.0718C31.0566 28.5016 27.4581 32.1001 23.0283 32.1001C18.5985 32.1001 15 28.5016 15 24.0718C15 19.642 18.5985 16.0435 23.0283 16.0435C24.7317 16.0435 26.3292 16.5758 27.629 17.492L27.7261 17.5604L26.8696 18.4168L26.8015 18.3719C25.7023 17.6461 24.4177 17.2317 23.0293 17.2317C19.2572 17.2317 16.1892 20.2997 16.1892 24.0718C16.1892 27.8439 19.2572 30.9119 23.0293 30.9119C26.8014 30.9119 29.8694 27.8439 29.8694 24.0718C29.8694 22.683 29.4548 21.3773 28.7297 20.3003L28.6838 20.2321Z" fill="#1679F9"/>
<path d="M25.7204 19.4032C24.9425 18.9407 24.0166 18.6885 23.0283 18.6885C20.0626 18.6885 17.6655 21.0855 17.6655 24.0513C17.6655 27.017 20.0626 29.4141 23.0283 29.4141C25.9941 29.4141 28.3911 27.017 28.3911 24.0513C28.3911 23.063 28.1389 22.1585 27.6764 21.3592L26.9403 22.0952C27.2344 22.6842 27.4029 23.3571 27.4029 24.0512C27.4029 26.4697 25.4468 28.4258 23.0283 28.4258C20.6097 28.4258 18.6537 26.4698 18.6537 24.0512C18.6537 21.6327 20.6097 19.6767 23.0283 19.6767C23.7225 19.6767 24.3953 19.8451 24.9843 20.1392L25.7204 19.4032Z" fill="#1679F9"/>
<path d="M22.9033 22.2421L23.8078 21.3376C23.5761 21.2743 23.3239 21.2324 23.0503 21.2324C21.4944 21.2324 20.2327 22.4943 20.2327 24.0501C20.2327 25.6059 21.4945 26.8678 23.0503 26.8678C24.6063 26.8678 25.868 25.6059 25.868 24.0501C25.868 23.7979 25.8261 23.5457 25.7629 23.2927L24.8584 24.1758C24.7951 25.1222 23.9958 25.8582 23.0494 25.8582C22.0398 25.8582 21.2199 25.0384 21.2199 24.0287C21.2207 23.1045 21.9568 22.3052 22.9032 22.242L22.9033 22.2421Z" fill="#1679F9"/>
<path d="M35.0586 15.0716C34.9749 14.8826 34.8064 14.7561 34.5961 14.7561H32.3246V12.5052C32.3246 12.2949 32.1981 12.1265 32.0092 12.0427C31.8408 11.9589 31.6305 12.0008 31.4834 12.1478L28.9383 14.693C28.8545 14.7768 28.7912 14.9033 28.7912 15.0503V17.6158L22.6924 23.7147C22.5034 23.9037 22.5034 24.2191 22.6924 24.4089C22.7975 24.514 22.924 24.5559 23.0497 24.5559C23.1762 24.5559 23.3019 24.514 23.4071 24.4089L29.5059 18.31H32.0511C32.1776 18.31 32.3033 18.2681 32.4084 18.163L34.9535 15.6178C35.1006 15.4708 35.1425 15.2605 35.0587 15.0715L35.0586 15.0716ZM29.7795 15.2605L31.3355 13.7046L31.3363 15.0502L29.7804 16.6061L29.7795 15.2605ZM31.8407 17.3217H30.4737L32.0297 15.7657H33.3966L31.8407 17.3217Z" fill="#1679F9"/>
</svg>
