<svg width="48" height="48" viewBox="0 0 48 48" fill="none" xmlns="http://www.w3.org/2000/svg">
<circle cx="18.5" cy="24.5" r="3.5" fill="#ECF3FF"/>
<circle cx="29.5" cy="24.5" r="3.5" fill="#ECF3FF"/>
<path fill-rule="evenodd" clip-rule="evenodd" d="M33.4931 25.103H34.3129C34.6926 25.103 35 24.7956 35 24.4159C35 24.0363 34.6926 23.7289 34.3129 23.7289H34.0961L33.494 23.729C33.1632 21.6194 31.3344 20.0001 29.1328 20.0001C27.1292 20.0001 25.4367 21.3409 24.8978 23.1712C24.594 23.0221 24.2813 22.9425 23.9632 22.9425L23.9614 22.9425C23.9484 22.9425 23.9293 22.9425 23.9088 22.9435M33.4931 25.103C33.1623 27.2119 31.3334 28.8311 29.1319 28.8311C26.8012 28.8311 24.8932 27.015 24.7324 24.7258C24.4114 24.4301 24.1506 24.3158 23.9456 24.3167C23.7653 24.3225 23.5372 24.4328 23.2684 24.7055C23.118 27.0052 21.2047 28.8312 18.8672 28.8312C16.6656 28.8312 14.8368 27.2128 14.506 25.1031H13.6871C13.3074 25.1031 13 24.7957 13 24.416C13 24.0364 13.3074 23.729 13.6871 23.729H14.506C14.8368 21.6193 16.6656 20 18.8672 20C20.8616 20 22.5479 21.3296 23.0946 23.1474C23.3553 23.0222 23.6271 22.9514 23.9088 22.9435M15.8262 24.417C15.8262 26.0937 17.1898 27.458 18.8672 27.458C20.544 27.458 21.9092 26.0936 21.9092 24.417C21.9092 22.7403 20.5447 21.3751 18.8672 21.3751C17.1907 21.3751 15.8262 22.7395 15.8262 24.417ZM26.0908 24.417C26.0908 26.0936 27.4552 27.458 29.1327 27.458C30.8094 27.458 32.1739 26.0936 32.1747 24.4169C32.1746 22.7403 30.8093 21.3751 29.1327 21.3751C27.4552 21.3751 26.0908 22.7395 26.0908 24.417Z" fill="#1679F9"/>
</svg>
