<svg width="48" height="48" viewBox="0 0 48 48" fill="none" xmlns="http://www.w3.org/2000/svg">
<path d="M32.1742 21.4732C32.4439 21.0923 32.9743 21.0082 33.3487 21.2868V21.2868C33.7108 21.5563 33.7916 22.0657 33.5307 22.4341L31.094 25.8739L27.9656 23.1573C27.623 22.8598 27.5803 22.3432 27.8694 21.9935V21.9935C28.1686 21.6315 28.7072 21.587 29.0618 21.8949L29.8863 22.6108C29.3344 19.8073 26.913 17.6896 24.0183 17.6896C22.1855 17.6896 20.4776 18.5335 19.3336 20.0046V20.0046C19.0518 20.3667 18.521 20.4209 18.1657 20.1306V20.1306C17.8159 19.8447 17.7521 19.3272 18.0294 18.9706L18.0445 18.9512C19.5033 17.0757 21.6806 16 24.0181 16C27.7505 16 30.8639 18.7603 31.5224 22.3934L32.1742 21.4732ZM24.0179 31.6522C26.6159 31.6522 29.0119 30.3163 30.4273 28.0782L30.4416 28.0556C30.6829 27.6743 30.5711 27.1673 30.1953 26.9176V26.9176C29.8122 26.663 29.2903 26.7704 29.0443 27.1591V27.1591C27.9338 28.9144 26.0547 29.9623 24.0179 29.9623C20.8441 29.9623 18.2406 27.4172 18.0445 24.214L18.9387 25.0858C19.2747 25.4133 19.8145 25.3997 20.1335 25.0557V25.0557C20.4416 24.7235 20.4285 24.2063 20.1042 23.8901L17.132 20.9931L14.5067 24.2825C14.2249 24.6356 14.2763 25.1491 14.6225 25.4393V25.4393C14.9807 25.7396 15.5159 25.686 15.8074 25.3208L16.4175 24.5566C16.7782 28.5303 20.0485 31.6522 24.0179 31.6522Z" fill="#F29C38"/>
</svg>
