<svg width="48" height="48" viewBox="0 0 48 48" fill="none" xmlns="http://www.w3.org/2000/svg">
<path d="M24.5 17L25.5 16.5L30 19L30.5 20.5L29 21L27.5 26L28.5 29L18.5 23L21 22.5L24 19L24.5 17Z" fill="#ECF3FF"/>
<path d="M26.0798 15.9714C25.254 15.4918 24.1746 15.7781 23.695 16.6038C23.3596 17.1813 23.4146 17.8753 23.7499 18.4089L20.64 21.5518C19.3253 21.5054 18.1214 21.8583 17.5378 22.8631C17.3564 23.1754 17.4627 23.576 17.775 23.7574L22.3008 26.3859L19.4269 31.3342C19.2488 31.6307 19.3581 32.0666 19.6572 32.2403C19.9563 32.414 20.3891 32.293 20.5583 31.9913L23.4323 27.043L27.9581 29.6716C28.2704 29.853 28.671 29.7467 28.8524 29.4344C29.4359 28.4297 29.1459 27.2092 28.4541 26.0902L29.6429 21.8315C30.2726 21.8583 30.9026 21.5622 31.238 20.9847C31.7176 20.159 31.4313 19.0795 30.6056 18.6L26.0798 15.9714ZM25.4226 17.1029L29.9485 19.7314C30.1672 19.8585 30.2336 20.1088 30.1066 20.3276C29.9795 20.5464 29.7291 20.6128 29.5104 20.4857C29.335 20.3839 29.123 20.3691 28.9357 20.4455C28.7482 20.5208 28.6065 20.6799 28.5516 20.8746L27.1192 26.0005C27.0662 26.1884 27.0994 26.3889 27.21 26.5497C27.6192 27.141 27.7998 27.6577 27.8315 28.0849L19.2158 23.081C19.6026 22.8968 20.1409 22.7977 20.8572 22.8601C21.0516 22.8765 21.2423 22.806 21.3793 22.6668L25.1218 18.8826C25.2637 18.7384 25.3316 18.5365 25.3041 18.3363C25.2777 18.1358 25.1598 17.9589 24.9845 17.8571C24.7657 17.73 24.6993 17.4797 24.8264 17.2609C24.9534 17.0421 25.2039 16.9758 25.4226 17.1029Z" fill="#1679F9"/>
</svg>
