<svg width="48" height="48" viewBox="0 0 48 48" fill="none" xmlns="http://www.w3.org/2000/svg">
<rect x="17" y="18" width="14" height="4" fill="#ECF3FF"/>
<path fill-rule="evenodd" clip-rule="evenodd" d="M30 18.3H18C17.6134 18.3 17.3 18.6134 17.3 19V30C17.3 30.3866 17.6134 30.7 18 30.7H30C30.3866 30.7 30.7 30.3866 30.7 30V19C30.7 18.6134 30.3866 18.3 30 18.3ZM18 17C16.8954 17 16 17.8954 16 19V30C16 31.1046 16.8954 32 18 32H30C31.1046 32 32 31.1046 32 30V19C32 17.8954 31.1046 17 30 17H18Z" fill="#1679F9"/>
<path fill-rule="evenodd" clip-rule="evenodd" d="M31 23.0002H17V21.7002H31V23.0002Z" fill="#1679F9"/>
<path fill-rule="evenodd" clip-rule="evenodd" d="M27.35 15C27.709 15 28 15.3274 28 15.7312V18.7687C28 19.1726 27.709 19.5 27.35 19.5C26.991 19.5 26.7 19.1726 26.7 18.7687V15.7312C26.7 15.3274 26.991 15 27.35 15Z" fill="#1679F9"/>
<path fill-rule="evenodd" clip-rule="evenodd" d="M20.65 15C21.009 15 21.3 15.3274 21.3 15.7312V18.7687C21.3 19.1726 21.009 19.5 20.65 19.5C20.2911 19.5 20 19.1726 20 18.7687V15.7312C20 15.3274 20.2911 15 20.65 15Z" fill="#1679F9"/>
</svg>
