<svg width="48" height="48" viewBox="0 0 48 48" fill="none" xmlns="http://www.w3.org/2000/svg">
<path d="M19 20.5C18.6 17.7 21.5 16 24 16H25.5L28.5 18.5V22L26.5 26.5H21.5L20.5 24.5C20 24.3333 19.4 23.3 19 20.5Z" fill="#ECF3FF"/>
<path fill-rule="evenodd" clip-rule="evenodd" d="M19.2664 24.4937C19.1761 24.3315 19.0856 24.1865 18.9926 24.0376L18.9901 24.0337C18.9698 23.9991 18.9497 23.965 18.9299 23.9313C18.5893 23.3542 18.3184 22.8951 18.1712 22.1815C18.0575 21.7237 18 21.2643 18 20.8051C18 17.6057 20.6057 15 23.8051 15C27.0049 15 29.609 17.6056 29.6464 20.8023L29.6464 20.8044C29.6464 21.2637 29.5898 21.7413 29.475 22.2002C29.328 22.8951 29.058 23.3527 28.7186 23.9277C28.6981 23.9626 28.6773 23.9978 28.6562 24.0336L28.6522 24.0404L28.6476 24.0468C28.5624 24.166 28.4753 24.3224 28.3815 24.491L28.3747 24.5032C28.2575 24.6879 28.1555 24.8569 28.0535 25.0266C28.0437 25.043 28.0339 25.0593 28.024 25.0756L28.0232 25.077C27.5231 25.8919 27.2504 26.3383 27.2504 27.2507V29.5727C27.2504 30.2081 26.8226 30.7543 26.239 30.9093C26.106 31.5153 25.8538 32.0269 25.4677 32.394C25.0547 32.7868 24.5032 33 23.8232 33C23.1432 33 22.5917 32.7868 22.1786 32.394C21.7919 32.0262 21.5395 31.5135 21.4067 30.9061C20.8283 30.739 20.396 30.2133 20.396 29.5727V27.2507C20.396 26.3383 20.1233 25.8919 19.6231 25.077L19.6221 25.0752C19.5849 25.0129 19.5417 24.945 19.4964 24.8737C19.4196 24.753 19.3367 24.6225 19.2664 24.4937ZM26.0524 27.2508C26.0524 27.2019 26.0561 27.1566 26.0601 27.1116C26.0607 27.1056 26.0613 27.0995 26.0618 27.0935C26.0665 27.0424 26.0713 26.9911 26.0713 26.9352H21.5202C21.5311 26.989 21.5357 27.049 21.5377 27.1116C21.5391 27.157 21.5391 27.2038 21.5391 27.2508V27.8269H26.0531L26.0524 27.2508ZM28.1285 21.8969C28.2194 21.5157 28.2724 21.1587 28.2717 20.8237C28.2717 18.3575 26.2704 16.3558 23.8042 16.3558C21.338 16.3558 19.3367 18.3571 19.3367 20.8233C19.3367 21.1772 19.39 21.5341 19.4802 21.8951L19.4809 21.8978C19.6041 22.4262 19.796 22.7777 20.1467 23.3507L20.1507 23.3573L20.1542 23.3642C20.1856 23.4274 20.2253 23.4916 20.2731 23.5689L20.2786 23.5778C20.3268 23.6559 20.3812 23.7447 20.4312 23.8442C20.5405 24.0441 20.6483 24.2243 20.756 24.3852L20.7587 24.3893C21.0511 24.8538 21.3047 25.2831 21.479 25.7741H26.1487C26.3093 25.3279 26.5462 24.9304 26.7917 24.5185C26.8165 24.477 26.8413 24.4352 26.8662 24.3933L26.8711 24.385C26.9788 24.2242 27.0868 24.0442 27.1961 23.8442C27.2919 23.653 27.3877 23.4995 27.4793 23.3528C27.5122 23.2942 27.5439 23.2382 27.5744 23.1844C27.8564 22.6861 28.0325 22.375 28.1271 21.9032L28.1285 21.8969ZM23.2612 17.2497C23.6198 17.2011 23.9875 17.4377 24.0185 17.8142C24.0654 18.1673 23.8144 18.5153 23.439 18.5653C22.5537 18.6851 21.8509 19.4016 21.7135 20.2937C21.6633 20.6149 21.3907 20.8707 21.0558 20.8707H20.9701L20.9585 20.8692C20.5837 20.8194 20.3296 20.4894 20.3794 20.1138L20.3798 20.1115C20.595 18.6396 21.7904 17.4657 23.2592 17.25L23.2612 17.2497ZM22.6122 30.9567C22.5934 30.9014 22.5762 30.8427 22.5606 30.7802H25.0683C25.0516 30.8427 25.0332 30.9014 25.0135 30.9567C24.7043 31.8207 24.0492 31.8207 23.805 31.8207C23.5608 31.8207 22.9057 31.8207 22.6122 30.9567ZM21.7436 29.7956H25.8673C25.9783 29.7956 26.0711 29.7027 26.0711 29.591V28.8291H21.539V29.591C21.539 29.7027 21.6319 29.7956 21.7436 29.7956Z" fill="#1679F9"/>
</svg>
