<svg width="48" height="48" viewBox="0 0 48 48" fill="none" xmlns="http://www.w3.org/2000/svg">
<path d="M21.5 20.5L23.5 15L26.5 20.5L32 21L28 25L29 31L24 28L18.5 30.5L19.5 25L15.5 21L21.5 20.5Z" fill="#FFE6C9"/>
<path d="M29.4405 31.9999C29.6711 32.0037 29.8899 31.9068 30.0367 31.7367C30.1835 31.5676 30.2427 31.3433 30.1964 31.1267L28.9833 25.4758L33.4325 21.5866C33.6533 21.3947 33.736 21.0963 33.6444 20.8255C33.5527 20.5538 33.3044 20.358 33.0078 20.3257L27.0195 19.6843L24.5324 14.4295H24.5333C24.4111 14.1682 24.1402 14 23.8406 14C23.541 14 23.27 14.1682 23.1478 14.4295L20.6607 19.6843L14.6724 20.3257H14.6734C14.3768 20.358 14.1284 20.5538 14.0368 20.8255C13.9452 21.0963 14.0279 21.3947 14.2487 21.5866L18.6979 25.4758L17.4848 31.1267C17.4257 31.406 17.542 31.692 17.7824 31.8593C18.0229 32.0265 18.3431 32.0446 18.6023 31.9049L23.8408 29.0542L29.0794 31.9049C29.1897 31.9647 29.3139 31.998 29.441 31.9999L29.4405 31.9999ZM28.3733 29.8476L24.216 27.5871H24.215C23.9825 27.4607 23.6987 27.4607 23.4661 27.5871L19.3088 29.8476L20.2705 25.3644H20.2695C20.3227 25.1136 20.235 24.8542 20.038 24.6812L16.5073 21.5948L21.2589 21.0836L21.2579 21.0845C21.525 21.057 21.7566 20.8964 21.8679 20.6617L23.8407 16.4959L25.8135 20.6617C25.9249 20.8964 26.1564 21.057 26.4235 21.0845L31.1751 21.5957L27.6444 24.6822L27.6435 24.6812C27.4464 24.8542 27.3587 25.1136 27.4119 25.3644L28.3733 29.8476Z" fill="#F5982B"/>
</svg>
