<svg width="48" height="48" viewBox="0 0 48 48" fill="none" xmlns="http://www.w3.org/2000/svg">
<path d="M31 16H24.5L16.5 24L15.5 26L21 32H23.5L32 23.5V17L31 16Z" fill="#ECF3FF"/>
<circle cx="28" cy="20" r="2" fill="white"/>
<path d="M27.7446 17.7363C26.324 17.7363 25.2007 18.8902 25.2007 20.2748C25.2007 21.6924 26.357 22.8133 27.7446 22.8133C29.1322 22.8133 30.2885 21.6924 30.2885 20.2748C30.2885 18.8902 29.1322 17.7363 27.7446 17.7363ZM27.7446 21.5275C27.0508 21.5275 26.5222 20.9671 26.5222 20.3078C26.5222 19.6154 27.0838 19.088 27.7446 19.088C28.4053 19.088 28.967 19.6484 28.967 20.3078C28.967 20.9671 28.4053 21.5275 27.7446 21.5275Z" fill="#1679F9"/>
<path d="M30.5855 15L25.4977 15.1648C24.6387 15.2308 23.8128 15.5934 23.1851 16.2198L15.8177 23.5714C14.7274 24.6593 14.7274 26.4066 15.8177 27.4945L20.509 32.1758C21.0376 32.7033 21.7644 33 22.4582 33C23.152 33 23.8789 32.7363 24.4075 32.1758L31.7748 24.8242C32.4026 24.1978 32.766 23.4066 32.832 22.5165L32.9972 17.4396C33.0303 16.7802 32.766 16.1538 32.3034 15.6923C31.874 15.2308 31.2462 15 30.5855 15ZM31.5436 22.4176C31.5105 22.978 31.2793 23.4725 30.8828 23.8681L23.4824 31.2527C22.9208 31.8132 21.9957 31.8132 21.4341 31.2527L16.7427 26.5714C16.1811 26.011 16.1811 25.0879 16.7427 24.5275L24.1101 17.1758C24.5066 16.7802 25.0021 16.5495 25.5307 16.5165L30.6185 16.3516C30.9159 16.3516 31.1802 16.4505 31.3784 16.6484C31.5766 16.8462 31.6757 17.1099 31.6757 17.4066L31.5436 22.4176Z" fill="#1679F9"/>
</svg>
