<svg width="48" height="48" viewBox="0 0 48 48" fill="none" xmlns="http://www.w3.org/2000/svg">
<path d="M15.6327 19.3976C15.8307 19.1833 16.1693 19.1833 16.3673 19.3976L18.6888 21.9107C18.9846 22.231 18.7575 22.75 18.3215 22.75H13.6785C13.2425 22.75 13.0154 22.231 13.3112 21.9107L15.6327 19.3976Z" fill="#D93562"/>
<path d="M30.6327 27.6024C30.8307 27.8167 31.1693 27.8167 31.3673 27.6024L33.6888 25.0893C33.9846 24.769 33.7575 24.25 33.3215 24.25H28.6785C28.2425 24.25 28.0154 24.769 28.3112 25.0893L30.6327 27.6024Z" fill="#D93562"/>
<circle cx="16" cy="16" r="1" fill="#D93562"/>
<circle cx="16" cy="31" r="1" fill="#D93562"/>
<circle cx="16" cy="26" r="1" fill="#D93562"/>
<circle cx="21" cy="16" r="1" fill="#D93562"/>
<circle cx="21" cy="31" r="1" fill="#D93562"/>
<circle cx="26" cy="16" r="1" fill="#D93562"/>
<circle cx="26" cy="31" r="1" fill="#D93562"/>
<circle cx="31" cy="16" r="1" fill="#D93562"/>
<circle cx="31" cy="21" r="1" fill="#D93562"/>
<circle cx="31" cy="31" r="1" fill="#D93562"/>
</svg>
