<svg width="48" height="48" viewBox="0 0 48 48" fill="none" xmlns="http://www.w3.org/2000/svg">
<path fill-rule="evenodd" clip-rule="evenodd" d="M15.85 25C15.85 20.0294 19.8794 16 24.85 16C29.8205 16 33.85 20.0294 33.85 25C33.85 29.9706 29.8205 34 24.85 34C19.8794 34 15.85 29.9706 15.85 25ZM24.85 17.4356C20.6723 17.4356 17.2856 20.8223 17.2856 25C17.2856 29.1777 20.6723 32.5644 24.85 32.5644C29.0277 32.5644 32.4144 29.1777 32.4144 25C32.4144 20.8223 29.0277 17.4356 24.85 17.4356Z" fill="#1679F9"/>
<path d="M25.5769 28.8455C25.5769 28.9406 25.5363 29.0314 25.4641 29.0985C25.3919 29.1656 25.2941 29.2033 25.1918 29.2033H24.614C24.4011 29.2033 24.2289 29.0433 24.2289 28.8455V28.3088C24.2289 28.1111 24.4011 27.951 24.614 27.951H25.1918C25.2941 27.951 25.3919 27.9888 25.4641 28.0559C25.5363 28.123 25.5769 28.2138 25.5769 28.3089V28.8455ZM25.5769 26.0389C25.5769 26.1221 25.5416 26.2018 25.4784 26.2605C25.4152 26.3192 25.3294 26.352 25.2399 26.352H24.5659C24.3801 26.352 24.2289 26.2123 24.2289 26.0389V21.1505C24.2289 20.9772 24.3801 20.8374 24.5659 20.8374H25.2399C25.4257 20.8374 25.5769 20.9772 25.5769 21.1505L25.5769 26.0389Z" fill="#1679F9" stroke="#1679F9" stroke-width="0.3"/>
</svg>
