<svg width="20" height="14" viewBox="0 0 20 14" fill="none" xmlns="http://www.w3.org/2000/svg">
<path fill-rule="evenodd" clip-rule="evenodd" d="M16 1.5H4C2.61929 1.5 1.5 2.61929 1.5 4V10C1.5 11.3807 2.61929 12.5 4 12.5H16C17.3807 12.5 18.5 11.3807 18.5 10V4C18.5 2.61929 17.3807 1.5 16 1.5ZM4 0C1.79086 0 0 1.79086 0 4V10C0 12.2091 1.79086 14 4 14H16C18.2091 14 20 12.2091 20 10V4C20 1.79086 18.2091 0 16 0H4Z" fill="#F5982B"/>
<path fill-rule="evenodd" clip-rule="evenodd" d="M7.5286 5.5286C7.78894 5.26825 8.21106 5.26825 8.47141 5.5286L10 7.05719L11.5286 5.5286C11.7889 5.26825 12.2111 5.26825 12.4714 5.5286C12.7318 5.78894 12.7318 6.21106 12.4714 6.4714L10.4714 8.47141C10.2111 8.73175 9.78895 8.73175 9.5286 8.47141L7.5286 6.4714C7.26825 6.21106 7.26825 5.78894 7.5286 5.5286Z" fill="#F5982B"/>
</svg>