<svg width="48" height="48" viewBox="0 0 48 48" fill="none" xmlns="http://www.w3.org/2000/svg">
<path d="M15 27L19 23L21.5 25.5L26.5 20.5L33 27V30H15V27Z" fill="#ECF3FF"/>
<circle cx="21.5" cy="19.5" r="1.5" fill="#ECF3FF"/>
<path fill-rule="evenodd" clip-rule="evenodd" d="M33.3328 30.4121C33.7013 30.4121 34 30.1135 34 29.7449V26.8038L32.7838 25.6747L27.1332 20.0239C26.9189 19.8093 26.571 19.8093 26.3569 20.0239L21.8041 24.5765L19.4474 22.2198C19.233 22.0053 18.8852 22.0053 18.6711 22.2198L15.2162 25.6747L14 26.8038V29.7449C14 30.1135 14.2987 30.4121 14.6672 30.4121H33.3328ZM15.2162 27.2272V29.1959H24.8707L19.0591 23.3843L15.2162 27.2272ZM22.5803 25.353L26.4232 29.1959H32.7838V27.2275L26.7449 21.1886L22.5803 25.353Z" fill="#1679F9"/>
<path fill-rule="evenodd" clip-rule="evenodd" d="M24.1183 19.3142C24.1183 20.5903 23.0803 21.6284 21.8042 21.6284C20.528 21.6284 19.49 20.5903 19.49 19.3142C19.49 18.038 20.528 17 21.8042 17C23.0803 17 24.1183 18.038 24.1183 19.3142ZM22.7839 19.3142C22.7839 18.7741 22.3443 18.3345 21.8042 18.3345C21.2641 18.3345 20.8245 18.7741 20.8245 19.3142C20.8245 19.8543 21.2641 20.2939 21.8042 20.2939C22.3443 20.2939 22.7839 19.8543 22.7839 19.3142Z" fill="#1679F9"/>
</svg>
