<?xml version="1.0" encoding="utf-8"?>
<!-- Generator: Adobe Adobe Illustrator 24.2.0, SVG Export Plug-In . SVG Version: 6.00 Build 0)  -->
<svg version="1.1" xmlns="http://www.w3.org/2000/svg" xmlns:xlink="http://www.w3.org/1999/xlink" x="0px" y="0px" width="1080px"
	 height="1080px" viewBox="0 0 1080 1080" style="enable-background:new 0 0 1080 1080;" xml:space="preserve">
<style type="text/css">
	.st0{fill:#FFFFFF;stroke:#000000;stroke-width:8;stroke-linecap:round;stroke-linejoin:round;stroke-miterlimit:10;}
	.st1{fill:#FFBABA;}
	.st2{opacity:0.0706;}
	.st3{opacity:0.0706;fill:none;stroke:#000000;stroke-width:30;stroke-linecap:round;stroke-linejoin:round;stroke-miterlimit:10;}
	.st4{fill:#E89E9E;}
	.st5{stroke:#000000;stroke-width:8;stroke-linecap:round;stroke-linejoin:round;stroke-miterlimit:10;}
	.st6{fill:none;stroke:#000000;stroke-width:8;stroke-linecap:round;stroke-linejoin:round;stroke-miterlimit:10;}
	.st7{opacity:0.2392;fill:none;stroke:#FFFFFF;stroke-width:20;stroke-linecap:round;stroke-linejoin:round;stroke-miterlimit:10;}
	.st8{opacity:0.2392;fill:none;stroke:#000000;stroke-width:20;stroke-linecap:round;stroke-linejoin:round;stroke-miterlimit:10;}
	.st9{fill:none;stroke:#000000;stroke-width:20;stroke-linecap:round;stroke-linejoin:round;stroke-miterlimit:10;}
	.st10{fill:#FFFFFF;}
</style>
<g id="Ebene_2">
	<path class="st0" d="M208.15,360.65C9.17,430.43,121.46,702.4,309.35,651.91c3.05,25.7,84.24,42.25,108.18,8.96
		c15.44,35.11,156.97,88.69,217.42,4.61c28.19,41.06,124.93,68.59,184.54,17.75c262.78,86.73,252-343.83,49.12-325.17
		c11.32-57-104.56-95.15-138.26-63.81c-10.22-162.94-262.1-145.81-277.39-50.56C376.69,190.95,230.53,221.24,208.15,360.65z"/>
</g>
<g id="Ebene_4">
	<path class="st1" d="M276.32,429.69c3.02,31.3,122.2,15.34,119.93-21.17C394.01,372.47,271.89,383.86,276.32,429.69z"/>
	<path class="st1" d="M635.28,425.84c-6.9,30.67,111.29,52.73,120.54,17.34C764.96,408.23,645.39,380.92,635.28,425.84z"/>
</g>
<g id="Ebene_9">
	<path class="st3" d="M437.93,266.21c-36.49-18.77-81.64-19.74-118.9-2.56s-65.85,52.13-75.29,92.07"/>
	<path class="st3" d="M212.88,390.84c-163.69,82.59-37.61,260.82,74.6,233.74"/>
	<path class="st3" d="M483.36,256.3c60.86-86.68,190.02-51.1,212.3,25.67"/>
	<path class="st3" d="M743.85,319.9c39.27-14.61,95.69,8.91,99.15,48.01"/>
	<path class="st3" d="M445.02,646.99c44.66,44.66,110.34,48.92,161.6,3.21"/>
	<path class="st3" d="M661.84,657.29c34.68,31.02,90.56,35.18,129.45,9.64"/>
	<path class="st3" d="M881.81,390.84c144.41,0,167.78,313.34-36.81,273.83"/>
</g>
<g id="Ebene_16">
	<path d="M374.51,417.2c38.92,31.52,88.43,48.85,138.41,52.1c49.98,3.25,100.36-7.13,146.53-26.53
		c-7.22,27.18-14.51,54.54-26.54,79.96c-12.03,25.42-29.21,49.07-52.7,64.53c-28.51,18.76-64.41,24.04-98.29,19.94
		c-28.55-3.45-56.67-13.46-79.26-31.25c-22.59-17.79-39.29-43.72-43.31-72.19C355.25,474.74,364.13,445.61,374.51,417.2z"/>
</g>
<g id="Ebene_15">
	<path class="st4" d="M389.87,557.46c19.75-17.69,45.83-28.16,72.32-29.05c26.5-0.88,53.22,7.83,74.1,24.16
		c21.21-36.97,62.95-61.22,105.57-61.34c-2.66,30.84-16.6,60.59-38.6,82.36s-51.88,35.42-82.75,37.77
		c-17.42,1.33-34.96-0.82-52.02-4.59c-15.83-3.5-31.49-8.45-45.51-16.57C408.95,582.08,396.58,570.59,389.87,557.46z"/>
</g>
<g id="Ebene_13">
	
		<ellipse transform="matrix(0.0774 -0.997 0.997 0.0774 101.4352 827.5218)" class="st5" cx="497.86" cy="358.95" rx="43.42" ry="14.5"/>
	
		<ellipse transform="matrix(0.0774 -0.997 0.997 0.0774 155.5952 903.9656)" class="st5" cx="566.24" cy="367.91" rx="43.42" ry="14.5"/>
	<path class="st6" d="M373.88,412.65c26.22,42.31,119.66,53.59,146.77,55.75c35.39,2.81,100.01-4.12,141.2-27.13
		c-35.2,104.45-35.01,108.27-70.99,141.68c-29.51,27.41-74.04,32.35-113.74,25.6c-40.99-6.97-78.66-29.29-102.87-63.09
		C337.72,494.49,369.06,435.78,373.88,412.65z"/>
	<path class="st6" d="M386.82,559.39c19.41-19.25,46.2-30.87,73.51-31.87c27.32-1.01,54.89,8.61,75.66,26.38
		c17.34-35.81,65.68-62.44,105.46-63.32"/>
</g>
<g id="Ebene_17">
	<path class="st7" d="M502.91,489.52c44.46,4.29,90.03-3.49,130.55-22.29"/>
	<path class="st8" d="M393.09,554.68c32.57,35.06,166.72,85.92,223.75-12.23c9.31-16.02,21.17-51.54,21.27-51.15"/>
</g>
<g id="Ebene_18">
	<circle class="st10" cx="504.14" cy="332.96" r="4.75"/>
	<circle class="st10" cx="504.14" cy="332.96" r="4.75"/>
	<ellipse class="st10" cx="572.97" cy="332.96" rx="4.78" ry="4.75"/>
</g>
</svg>
