<svg width="48" height="48" viewBox="0 0 48 48" fill="none" xmlns="http://www.w3.org/2000/svg">
<path fill-rule="evenodd" clip-rule="evenodd" d="M20 20.65C20 20.291 20.291 20 20.65 20H27.35C27.709 20 28 20.291 28 20.65C28 21.009 27.709 21.3 27.35 21.3H20.65C20.291 21.3 20 21.009 20 20.65Z" fill="#1679F9"/>
<path fill-rule="evenodd" clip-rule="evenodd" d="M24 23.65C24 23.291 24.291 23 24.65 23H28.35C28.709 23 29 23.291 29 23.65C29 24.009 28.709 24.3 28.35 24.3H24.65C24.291 24.3 24 24.009 24 23.65Z" fill="#1679F9"/>
<path fill-rule="evenodd" clip-rule="evenodd" d="M23 26.65C23 26.291 23.291 26 23.65 26H27.35C27.709 26 28 26.291 28 26.65C28 27.009 27.709 27.3 27.35 27.3H23.65C23.291 27.3 23 27.009 23 26.65Z" fill="#1679F9"/>
<path fill-rule="evenodd" clip-rule="evenodd" d="M20 26.65C20 26.291 20.291 26 20.65 26H21.7429C22.1018 26 22.3929 26.291 22.3929 26.65C22.3929 27.009 22.1018 27.3 21.7429 27.3H20.65C20.291 27.3 20 27.009 20 26.65Z" fill="#1679F9"/>
<path fill-rule="evenodd" clip-rule="evenodd" d="M19 23.65C19 23.291 19.291 23 19.65 23H22.3381C22.6971 23 22.9881 23.291 22.9881 23.65C22.9881 24.009 22.6971 24.3 22.3381 24.3H19.65C19.291 24.3 19 24.009 19 23.65Z" fill="#1679F9"/>
<path fill-rule="evenodd" clip-rule="evenodd" d="M31 17.3L17 17.3L17 16L31 16L31 17.3Z" fill="#1679F9"/>
<path fill-rule="evenodd" clip-rule="evenodd" d="M31 31.3L17 31.3L17 30L31 30L31 31.3Z" fill="#1679F9"/>
</svg>
