<?xml version="1.0" encoding="utf-8"?>
<!-- Generator: Adobe Adobe Illustrator 24.2.0, SVG Export Plug-In . SVG Version: 6.00 Build 0)  -->
<svg version="1.1" xmlns="http://www.w3.org/2000/svg" xmlns:xlink="http://www.w3.org/1999/xlink" x="0px" y="0px" width="1080px"
	 height="1080px" viewBox="0 0 1080 1080" style="enable-background:new 0 0 1080 1080;" xml:space="preserve">
<style type="text/css">
	.st0{fill:#B5A8A8;}
	.st1{opacity:0.1882;}
	.st2{opacity:0.2314;}
	.st3{fill:none;stroke:#000000;stroke-width:8;stroke-miterlimit:10;}
	.st4{fill:#BBC5C9;}
	.st5{fill:#859499;}
	.st6{opacity:0.251;}
	.st7{opacity:0.2392;}
	.st8{fill:none;stroke:#000000;stroke-width:8;stroke-linecap:round;stroke-linejoin:round;stroke-miterlimit:10;}
	.st9{fill:#FFFFFF;}
	.st10{fill:#E0C2BB;}
	.st11{fill:#FCF5F5;stroke:#FFFFFF;stroke-miterlimit:10;}
	.st12{fill:#C3597C;stroke:#FFFFFF;stroke-miterlimit:10;}
	.st13{fill:#F0E9E5;}
	.st14{fill:#CA8C7F;}
	.st15{stroke:#000000;stroke-width:8;stroke-linecap:round;stroke-linejoin:round;stroke-miterlimit:10;}
	.st16{fill:#857373;}
	.st17{fill:#F0E9E5;stroke:#F0E9E5;stroke-width:12;stroke-linecap:round;stroke-miterlimit:10;}
	
		.st18{fill:#F0E9E5;stroke:#000000;stroke-linecap:round;stroke-linejoin:round;stroke-miterlimit:10;stroke-dasharray:0,0,0,0,0,0;}
	.st19{fill:#F0E9E5;stroke:#F0E9E5;stroke-width:13;stroke-linecap:round;stroke-miterlimit:10;}
	.st20{opacity:0.2392;fill:#FFFFFF;}
</style>
<g id="Ebene_1">
</g>
<g id="Ebene_10">
	<path class="st0" d="M444.9,710.54c-1.12-2.64-2.25-5.27-3.37-7.91c4.95,34.91,4.8,70.32,5.55,105.57
		c0.75,35.53,2.44,71.09,7.27,106.3c11.96-0.01,23.92-0.01,35.88-0.02c2.55,0,5.42-0.14,7.14-2.03c1.61-1.77,1.59-4.44,1.48-6.83
		c-3.2-69.77-6.4-139.55-9.6-209.32c-0.07-1.61-0.18-3.32-1.13-4.62c-1.66-2.27-5-2.26-7.79-1.9
		C466.89,691.52,453.83,696.11,444.9,710.54z"/>
	<path class="st0" d="M599.59,699.41c-4.87,77.16-4.02,155.54,2.02,232.61c11.24,0.12,27.66-0.77,38.9-0.65
		c2.65,0.03,5.6-0.06,7.5-1.9c1.97-1.91,2.09-4.98,2.08-7.72c-0.3-75.53-0.6-151.05-0.91-226.58
		C632.5,696.41,615.82,697.66,599.59,699.41z"/>
</g>
<g id="Ebene_22">
	<path class="st1" d="M449.51,704.01c19.42,26.88,30.23,59.87,30.5,93.03c0.27,33.16-10.02,66.32-29,93.51
		c-3.03-54.27-6.06-108.54-9.08-162.81C441.38,717.99,441.22,707.08,449.51,704.01z"/>
	<path class="st2" d="M598.61,723.45c0.63,58.65,1.26,117.3,1.9,175.95c12.69-3.54,22.46-14.28,27.64-26.4s6.37-25.54,6.66-38.72
		c0.46-20.96-1.21-42.11-6.91-62.29C622.2,751.81,612.32,732.59,598.61,723.45z"/>
</g>
<g id="Ebene_4">
	<path class="st3" d="M439.2,682.57c3.73,79.38,7.46,153.75,11.19,233.13c15.39,1.77,32.78-2.45,48.17-0.68
		c-7.19-237.32-5.3-228.64-12.81-230.63C454.94,676.19,446.95,686.2,439.2,682.57z"/>
	<path class="st3" d="M597.31,691.93c-3.12,80.03,0.65,155.99,4.29,240.09c14.32,0.3,28.65,0.6,42.97,0.91
		c1.8,0.04,3.81,0.01,5.13-1.22c1.49-1.37,1.53-3.67,1.45-5.7c-2.77-79.21-1.54-154.42-4.31-233.63
		C632.64,693.18,614.42,689.98,597.31,691.93z"/>
</g>
<g id="Ebene_11">
</g>
<g id="Ebene_19">
	<path class="st4" d="M375.7,988.2c3.14-30.36,17.63-60.16,42.15-78.34s59.31-23.11,86.41-9.06c29.26,15.17,45.21,50.01,43.12,82.91
		C490.87,981,434.17,982.34,375.7,988.2z"/>
	<path class="st4" d="M566.66,980.49c-1.78-20.08,1.65-41.25,13.23-57.75c11.58-16.5,32.26-27.32,52.11-23.78
		c15.75,2.81,29.03,14.03,37.68,27.48c8.66,13.45,13.29,29.05,17.27,44.54c1.28,4.99,2.14,11.2-1.85,14.46
		c-2.2,1.8-5.24,2.06-8.08,2.23c-37.43,2.24-74.97,2.52-112.43,0.84C564.75,985.14,564.9,981.76,566.66,980.49z"/>
	<path class="st5" d="M378.63,991.49c-3.57,1.91-2.9,7.73,0.27,10.26c3.17,2.53,7.55,2.7,11.6,2.75c51.2,0.73,102.4,1.45,153.6,2.18
		c6.56-5.27,3.57-16.76-3.47-21.35c-7.05-4.6-16.09-4.33-24.49-3.9C469.7,983.8,418.26,970.31,378.63,991.49z"/>
	<path class="st5" d="M566.86,991.02c0,5.17,0,10.33-0.01,15.5c37.7-0.14,75.39-0.28,113.09-0.42c2.03-0.01,4.16-0.04,5.97-0.97
		c5.45-2.8,4.32-10.8,2.39-16.62C647.71,991.87,606.89,992.32,566.86,991.02z"/>
</g>
<g id="Ebene_23">
</g>
<g id="Ebene_24">
	<path class="st6" d="M484.9,891.97c-28.54-2.8-58.1,7.58-78.62,27.61c-20.52,20.03-31.62,49.33-29.52,77.92
		c0.14,1.89,0.36,3.87,1.43,5.44c2.13,3.15,6.56,3.44,10.36,3.41c4.57-0.03,9.56-0.21,13.02-3.2c2.72-2.35,3.92-5.96,5.1-9.35
		C420.76,953.15,449.45,917.73,484.9,891.97z"/>
	<path class="st7" d="M653.38,905.2c-12.19-6.08-25.99-9.42-39.53-7.89s-26.73,8.28-34.62,19.38
		c-8.17,11.48-10.05,26.13-11.68,40.12c-1.02,8.72-2.04,17.43-3.05,26.15c-0.79,6.72-1.5,13.88,1.49,19.96
		c2.99,6.07,11.21,10.06,16.77,6.2c4.21-2.92,5.06-8.66,5.91-13.71c4.99-29.81,22.96-57.2,48.31-73.66
		C643.45,917.53,651.24,912.68,653.38,905.2z"/>
</g>
<g id="Ebene_5">
	<path class="st8" d="M377.13,1007.85c-6.03-25.73,1.8-53.52,17.41-74.84c15.26-20.85,38.4-36.43,63.99-39.96
		s53.24,5.97,69.24,26.26c9.41,11.93,14.51,26.81,16.87,41.83c2.36,15.02,2.15,30.3,1.93,45.5
		C489.94,1006.81,433.33,1006.98,377.13,1007.85z"/>
	<path class="st8" d="M565.21,1008.72c-1.67-17.14-3.33-34.46-1.01-51.53c2.32-17.06,9.03-34.1,21.76-45.7
		c9.56-8.72,22.23-13.93,35.15-14.58c13.26-0.67,26.72,3.45,37.34,11.42c14.32,10.74,22.94,27.73,26.98,45.17
		c4.04,17.44,3.97,35.54,3.87,53.44C648.23,1005.56,607.09,1006.34,565.21,1008.72z"/>
	<path class="st8" d="M377.56,990.27c55.21-5.18,110.7-7.42,166.15-6.71"/>
	<path class="st8" d="M567.82,991.92c39.5,0.44,79.01-0.63,118.43-3.19"/>
	<path class="st8" d="M619.06,948.77c9.14,1.11,18.29,2.21,27.43,3.32"/>
	<path class="st8" d="M619.37,921.53c5.12,0,10.25,0,15.37,0"/>
	<path class="st8" d="M401.81,928.08c7.61,7.96,15.22,15.92,22.84,23.88"/>
	<path class="st8" d="M415.59,913.1c6.63,8.14,13.26,16.28,19.9,24.42"/>
</g>
<g id="Ebene_9">
	<path class="st0" d="M321.3,620.33c1.41,13.54-5.43,26.4-8.51,39.66s-0.21,30.47,12.61,35.05c8.82,3.15,18.92-1.45,24.96-8.61
		c6.05-7.16,8.94-16.38,11.68-25.34c-6.06,12.03-5.25,37.05,1.32,48.81c6.57,11.76,19.8,8.76,32.34,3.83s18.56-22.86,9.9-33.18
		c-0.98,12.67,0.92,26.16,8.6,36.29c7.68,10.13,16.32,24.12,21.28,12.42c5.51-13.01,21.32-18.05,19-33.51
		c-9.92,15.62-0.29,43.55,18.21,42.87c18.5-0.68,34.9-29.57,23.85-44.42c-2.06,10.97,11.15,36.14,18.7,44.37
		c7.55,8.23,12.61,1.03,16.53-9.43c4.3-11.49,6.61-17.59,2.34-26.75c-8.78,15.82,10.06,38.79,28.15,38.41
		c18.09-0.38,30.95-23.92,21.51-39.35c-6.95,14.91,6.64,34.9,23.06,33.93c16.42-0.97,27.56-22.42,18.91-36.41
		c-5.96,17.29,19.53,43.36,37.44,39.63c17.91-3.72,9.89-31.06,6.37-48.74c-4,15.94,20.4,34.21,35.38,27.47
		c14.99-6.74,15.14-32.04,5.61-45.43c-2.77,11.77,28.11,29.56,38.22,22.93c11.17-7.32,4.73-14.67,6.63-26.62
		c1.9-11.94-1.85-24.09-6.98-35.04c2.81,18.96,27.72,37.01,43.42,26.02s14.83-45.89-2.02-55.01c12.94,7.09,25.88,14.17,38.81,21.26
		c6.77-29.06-2.1-61.28-22.79-82.78c3.15,8.11,6.64,16.67,13.69,21.76c7.05,5.09,21.37,10.41,25.32,2.66
		c3.57-7.02-3.38-21.08-7.63-27.71c-13.56-21.14-27.13-42.27-40.69-63.41c10.51,7.26,16.86,19.95,24.85,30.12
		c7.98,10.17,29.81,17.34,37.43,6.9c6.95-9.52-1.5-29.96-9.89-38.24c-21.08-20.81-40.93-42.61-66.11-58.64
		c7.37,3.18,15.06,6.42,23.08,6.03s23.82-6.75,25.05-14.68c0.9-5.82-8.58-12.02-12.02-16.8c-12.29-17.1-32.33-27.53-53.04-31.35
		c10.88,3.5,32.74-5.35,33.96-16.71c1.22-11.36-15.82-23.46-25.17-30.03c-9.35-6.57-20.66-9.61-31.71-12.52
		c6.68,4.79,13.89,9.77,22.1,10.04c8.21,0.28,22.7-8.18,21.39-16.29c-1.14-7.06-14.24-9.2-20.86-11.9
		c-18.76-7.64-37.52-15.28-56.28-22.92c14.89,8.98,42.35-8.81,41.86-26.19s-21.79-30.53-36.82-39.27
		c-14.71-8.56-33.31-13.69-48.6-6.21c-15.29,7.48-21.5,31.78-7.72,41.77c-14.44,0.81-29.11-3.4-40.92-11.74
		c6.99-5.12,14.07-10.79,17.67-18.68c3.61-7.88,3.64-23.92-3.48-28.86c-7.94-5.52-20.69,4.09-26.48,11.83
		c-5.8,7.74-7.24,17.8-8.5,27.39c5.42-8.83,9.97-18.94,8.66-29.22c-1.31-10.28-2.69-26.11-12.94-24.64
		c-8.39,1.2-22.26,15.4-23.75,23.75c-1.49,8.35,0.55,16.87,2.57,25.11c2.7-19.44,2.9-44.08-14.81-45.04
		c-17.71-0.96-29.46,30.31-17.11,43.04c9.29-13.03-8.87-38.83-24.57-35.72c-15.69,3.12-16.04,32.6-2.48,41.09
		c-4.88-13.34-10.39-27.53-22.06-35.64s-17.39-16.59-28.23-7.97c-11.54,9.18,0.47,42.43,12.29,51.25
		c3.19-13.06-13.47-25.94-25.31-19.56s-10.24,27.38,2.42,31.89c-7.5,1.71-14.99,3.41-22.49,5.12c3.53-9.96,7.11-20.21,6.82-30.78
		c-0.29-10.57-5.32-21.69-14.89-26.18c-11.33-5.32-24.62-0.02-35.67,5.85c-13.58,7.22-25.26,17.17-36.14,28.05
		c-17.32,17.32-20.55,27.88-14.2,41.89s32.34,23.78,45.58,15.96c-0.48,2.89-0.95,5.78-1.43,8.67
		c-14.49,4.35-30.88,12.16-45.94,13.62c-15.06,1.46-34.02,4.02-45.23,14.17s-17.34,19.01-8.3,31.14
		c9.04,12.13,38.28,12.15,41.15-2.7c-19.56,8.76-37.69,20.71-53.45,35.24c-11.28,10.4-25.89,28.67-15.01,39.5
		c10.6,10.55,34.76-11.58,46.42-20.95c-18.67,5.43-37.24,31.97-49.65,46.93c-12.41,14.97-29.36,36.97-10,38.79
		c20.2,1.9,43.49-5.68,60.99-9.81c-28.04,5.51-45.78,27.22-73.23,41.65c-9.05,4.76-13.09,17.53-10.57,27.44
		c2.8,11,15.78,16.79,27.05,15.46c11.27-1.33,21.14-7.9,30.52-14.28c-15.65,1.29-37.77,27.65-42.76,42.54s9.92,13.45,24.19,20.01
		c14.27,6.56,26.4-4.95,36.54-13.03c-24.19,2.25-26.87,14.74-36.61,26.3c-9.74,11.56-14.9,28.27-8.83,42.12s27.35,25.1,41.53,12.69
		S314.27,631.09,321.3,620.33z"/>
</g>
<g id="Ebene_21">
	<path class="st2" d="M378.27,276.44c-27.35,1.69-54.33,9.16-78.66,21.78c-12.13,6.29-25.3,17.65-21.04,30.63
		c2.76,8.43,12.36,13.51,21.22,13.36s17.2-4,25.22-7.77c-26.06,6.48-49.74,22.16-65.88,43.62c-5.7,7.58-15.73,16.34-10.38,24.17
		c7.22,10.55,28.86,6.8,39.8,0.17c-43.75,55.41-47.2,131.51-48.76,202.1c-0.29,13.03-0.52,26.41,3.94,38.66
		c4.46,12.25,14.75,23.27,27.71,24.66c12.96,1.39,26.85-10.31,24.51-23.13c-0.23,3.68-0.45,7.35-0.68,11.03
		c9.27-10.76,18.54-21.51,27.81-32.27c-6.79,13.33-13.78,27.58-12.41,42.48c1.37,14.9,5.97,35.56,20.6,32.46
		c16.21-3.44,30.21-29.52,32.12-45.98c-3.51,14.14-7.01,29.21-2.37,43.02c4.64,13.81,14.05,31.26,27.13,24.84
		c13.19-6.47,21.4-30.93,20.95-45.61c-1.47,13.26-2.72,27.63,4.22,39.02c6.94,11.39,13.05,15.58,22.15,15.58
		c11.97,0,12.25-35.14,19.32-44.79c-1.86,11.37-3.68,23.31,0.14,34.18c3.83,10.87,15.36,19.95,26.47,16.87
		c7.98-2.22,9.25-11.99,11.05-20.07c1.8-8.08,4.8-14.53,3.64-22.73c-0.96,12.27-1.2,21.92,6.64,30.21
		c7.84,8.29,12.25,22.82,21.53,16.18s18.67-32.35,11.48-41.21c-2.5,11.55,1.09,24.58,10.15,32.16c9.07,7.58,17.44,15.34,26.6,7.88
		c9.16-7.46,16.85-29.85,8.5-38.21c-5.11,16.51,10.93,38.29,27.96,35.4c17.03-2.89,26.07-29.86,14.36-42.57
		c1.62,10.33,3.37,21.01,9.08,29.77c5.71,8.76,17.56,19.47,27.62,16.64c9.3-2.62,14.2-16.65,15.42-26.23s-1.33-19.2-3.85-28.52
		c-4.46,15.63,13,37.9,28.87,34.4c15.87-3.5,22.31-31.03,11.69-43.34c-1.41,11.12,22.14,20.97,33.3,19.9
		c11.16-1.07,8.13-10.91,10.16-21.93c2.03-11.02-1.88-22.49-8.31-31.67c-86.42,44.4-190.11,50.09-283.75,24.19
		c-42.59-11.78-84.6-30.63-114.78-62.9c-40.66-43.47-54.91-107.47-45.94-166.31S341.89,323.71,378.27,276.44z"/>
</g>
<g id="Ebene_2">
	<path class="st8" d="M376.83,275.72c-37.47,9.83-111.1,20.46-101.45,52.87c5.88,19.73,43.26,10.8,50.34,5.26
		c-35.46,11.42-85.14,51.97-79.16,65.95c7.4,17.29,31.45,12.77,47.09-1.31c-25.27,14.05-70.18,51.23-63.68,65.89
		c3.9,8.81,23.21,16.7,66.65-1.16c-25.94,20.56-94.12,40.42-82.01,69.56c11.54,27.76,48.2,2.29,56.31,2.64
		c-18.66,8.61-47.44,30.72-39.09,49.07c8.35,18.35,40.28,8.62,55.23-1.02c-58.72,37.1-44.9,76.26-29.57,82.89
		c35.56,15.37,42.78-21.44,63.76-45.58c-12.68,25.75-14.23,70.44-0.05,76.13c18.62,7.47,28.71-11.68,37.71-35.12
		c-1.25,20.11-0.09,57.33,24.1,59.12c13.84,1.03,27.45-20.84,22.29-35.74c4.94,15.46,11.16,47.84,26.72,47.32
		c12.04-0.4,13.21-18.34,20.19-34.34c4.91,18.21,2.75,41.18,20.51,40.46c17.76-0.72,25.92-25.32,21.4-42.17
		c6.21,15.3,10.3,43.79,23.96,46.07c11.48,1.92,18.12-22.26,17.44-36.76c4.31,19.46,10.9,37.43,29.29,36.42
		c18.4-1.01,17.93-20.95,14.94-38.85c7.34,18.01,12.19,36.39,27.6,36.02c15.41-0.38,23.51-19.19,16.02-37.08
		c10.33,19.59,23.62,39.29,34.32,37.88c20.04-2.64,14.99-27.58,12.03-48.96c9.87,15.43,15.92,33.42,32,27.59
		c16.08-5.83,12.98-21.04,6.88-41.69c9.6,10.95,22.42,23.16,40.18,17.75c11.76-3.58,5.26-48.51,0.26-59.74
		c6.69,13.59,31.16,31.66,42,24.66c13.56-8.75,8.82-34.46-2.79-59.81c12.1,12.1,33.07,30.03,40.11,24.99
		c17.16-12.27-12.57-59.42-22.69-82.08c18.44,29.66,34.41,32.19,39.19,24.24c8.2-13.66-25.67-57.9-37.35-77.86
		c26.65,38.23,45.12,32.13,52.06,22.81c14.24-19.12-25.8-57.85-71.82-93.23c14.71,6.03,41.61,4.4,43.18-11.35
		c1.96-19.71-38.54-38.82-62.08-53.18c12.47,5.26,29.84,0.53,30.98-11.68c1.62-17.34-43.47-40.63-55.64-42.2
		c37.25,7.84,43.08,3.95,42.26-6.6c-1.08-13.91-50.66-27.64-75.02-27.64c30.78-13.94,69.82-32.59,3.31-71.73
		c-66.98-39.42-66.56,18.3-59.22,36.64l-37.11-12.37c9.56-9.58,30.79-42.57,12.09-49.22c-14.85-5.28-27.93,25.79-35.29,40.24
		c4.55-14.65,14.34-54.69-0.97-54.69c-21.24,0-23.48,34.43-25.5,48.28c2.78-13.33,12.3-40.56-12.69-44.34
		c-17.11-2.58-21,31.37-17.6,42.28c-2.6-13.34-12.08-38.23-24.07-34.96c-12.41,3.39-13.17,17.44-4.88,40.1
		c-3.61-12.29-25.4-50.7-43.52-44.91c-17.47,5.57-4.84,32.48,10.45,55.39c-6.02-9.61-21.35-25.91-31.85-20.11
		c-7.44,4.11-7.75,21.31,5.67,30.95l-21.82,7.15c9.47-56-11.04-87.67-61.97-45.93c-87.42,71.64,10.16,79.65,10.4,80.04
		C376.66,268.46,378.07,277.94,376.83,275.72z"/>
</g>
<g id="Ebene_12">
	<path class="st0" d="M799.4,472.88c3.07,11.4,12.69,19.58,20.47,28.47c7.78,8.88,14.3,21.27,9.63,32.12
		c-2.4,5.58-7.34,9.59-12.09,13.37c-26.57,21.11-53.14,42.22-79.7,63.33c-3.67,2.92-7.43,5.94-9.73,10.03
		c-2.3,4.09-2.8,9.55,0.03,13.28c3.38,4.46,10.25,4.81,15.34,2.48c5.09-2.33,8.91-6.68,12.86-10.64c3.95-3.96,8.52-7.81,14.06-8.63
		c-9.47,6.45-18.49,13.57-26.97,21.28c-2.97,2.7-6.09,5.94-6.14,9.96c-0.07,5.85,6.81,9.76,12.6,8.91
		c5.79-0.85,10.54-4.86,15.01-8.63c4.47-3.77,9.4-7.64,15.23-8.12c-4.04,4.14-9.38,6.71-14.36,9.67s-9.9,6.65-12.16,11.98
		s-0.81,12.6,4.42,15.09c4.41,2.11,9.62,0.26,14.09-1.73c49.41-21.99,89.89-60.02,125.83-100.44c8.81-9.9,17.84-21.04,18.55-34.27
		c0.7-13.17-7.03-25.17-14.87-35.78c-34.7-46.98-87.95-94.49-136.06-132.49"/>
	<path class="st0" d="M335.59,349.81c-51.63,46.27-130.93,133.48-165.74,193.44c-5.86,10.09-11.64,21.24-10.21,32.82
		c1.81,14.64,14.45,25.3,26.7,33.53c44,29.54,94.57,47.63,145.03,63.82c3.51,1.13,7.14,2.26,10.82,1.97
		c3.68-0.29,7.47-2.36,8.67-5.85c1.53-4.45-1.52-9.1-4.69-12.57c-7.69-8.4-17.19-15.13-27.66-19.61
		c11.01,5.88,22.73,10.42,34.83,13.47c3.53,0.89,8.24,1.15,9.82-2.14c1.53-3.19-1.4-6.65-4.11-8.93
		c-8.3-6.97-17.07-13.37-26.25-19.13c10.95,8.58,24.69,13.54,38.6,13.94c3.66,0.11,7.73-0.26,10.26-2.91
		c3.05-3.18,2.57-8.55,0.13-12.22c-2.44-3.66-6.37-6.02-10.16-8.25c-30.71-18.06-61.41-36.13-92.12-54.19
		c-10.03-5.9-21.42-14.24-20.56-25.84c0.54-7.26,5.9-13.12,10.97-18.34c19.48-20.07,38.95-40.14,58.43-60.21l0.38,0.1"/>
</g>
<g id="Ebene_20">
	<path class="st2" d="M295.29,384.96c-50.9,43.02-88.96,99.08-123.78,155.91c-6.78,11.07-13.73,23.52-11.36,36.29
		c2.66,14.34,16.02,23.84,28.54,31.32c38.51,23.03,83.94,47.22,129.14,61.34c6.96-1.35,9-1.86,15.72,0.41
		c6.72,2.27,16.8-0.64,16.12-7.7c-0.38-4.02-4.19-6.7-7.68-8.73c-9.16-5.32-18.7-10.01-28.51-14.01
		c11.74,3.49,23.48,6.99,35.22,10.48c3.11,0.93,7.05,1.63,9.12-0.88c3.61-4.37-3.45-9.52-8.92-10.99
		c-28.73-7.71-55.77-21.65-78.71-40.58c-17.57-14.5-33.55-33.79-34.72-56.54c-1.05-20.44,9.96-39.33,20.6-56.81
		c15.23-25.04,30.47-50.08,45.7-75.12c3.31-5.45,6.73-11.24,6.8-17.61S303.53,378,295.29,384.96z"/>
	<path class="st7" d="M798.2,474.04c9.83,15.73,20.96,30.63,33.33,46.26c2.98,3.77,5.9,7.59,9.71,11.93
		c1.06,12.74-4.06,25.43-11.87,35.56c-7.81,10.13-18.14,17.99-28.74,25.15c-20.26,13.69-42.47,31.31-65.13,40.5
		c-4.36,1.77-8.7,3.7-11.68,0.06c-4.03-4.92,1.08-18.25,6.39-21.74c28.19-18.54,54.96-39.25,79.99-61.88
		c5.63-5.09,11.31-10.48,14.33-17.43C827.56,525.5,827.25,516.53,798.2,474.04z"/>
</g>
<g id="Ebene_3">
	<path class="st8" d="M791.62,471.44c13.82,16.49,34.48,41.31,34.96,54.63c0.81,22.52-118.79,84.07-102.76,107.44
		c5.79,8.43,28.56-11.72,42.56-18.36c-19.17,17.49-38.94,32.47-32.21,39.21c7.83,7.83,30.56-10.88,41.87-16.13
		c-15.53,13.13-36.45,27.94-26.79,36.34c23.17,20.14,170.83-105.44,166.06-139.45c-3.82-27.2-68.87-97.01-132.7-152.25"/>
	<path class="st8" d="M297.44,382.86c-53.41,47.59-151.75,168.62-140.49,199.05c12.76,34.47,183.15,108.6,192.13,87.81
		c5.13-11.88-21.12-21.48-32.83-31.48c26.6,10.07,43.9,17.14,46.4,10.77c3.19-8.14-22.18-20.05-32.71-28.59
		c21.79,10.97,50.6,16.75,54.05,6.23c5.6-17.13-126.27-65.72-127.82-93.84c-0.86-15.58,47.38-56.13,70.15-77.09"/>
</g>
<g id="Ebene_14">
</g>
<g id="Ebene_18">
	<path class="st10" d="M438.91,416.22c-11.24-5.58-22.7-11.24-35.11-13.12s-26.13,0.6-35.03,9.44
		c-11.94,11.86-11.97,31.1-8.79,47.62c9.28,48.18,39.82,91.61,81.34,117.75c41.52,26.14,93.33,34.93,141.43,25.23
		s92.08-37.53,122.49-76.03c20.73-26.24,35.5-58.13,36.77-91.55c0.48-12.74-1.06-25.8-6.59-37.28s-15.41-21.25-27.68-24.7
		c-21.08-5.92-42.18,7.2-61.25,17.95C582.1,427.81,499.71,446.44,438.91,416.22z"/>
</g>
<g id="Ebene_25">
	<path class="st7" d="M436.95,412.12c-18.63-8.96-41.42-17.77-58.83-6.62c-8.95,5.73-14.37,15.94-16.16,26.42
		c-1.79,10.48-3.26,24.47-0.58,34.75c19.29,74.07,77,123.18,144.06,132.27c68.19,9.25,140.37-7.84,190.66-57.13
		c25.07-28.26,41.68-63.94,47.17-101.32c-43.95,35.76-94.33,62.69-145.13,87.76c-18.47,9.12-37.24,18.09-57.3,22.73
		c-20.07,4.65-41.79,4.69-60.6-3.69c-22.59-10.06-38.97-31.8-45.06-55.77C429.08,467.54,432.68,441.71,436.95,412.12z"/>
</g>
<g id="Ebene_13">
	<path class="st11" d="M424.18,408.38c-3.02,11.01-4.71,22.38-5.02,33.79c9.52,3.33,19.29,5.91,29.21,7.7
		c1.22,0.22,2.53,0.42,3.68-0.04c2.08-0.85,2.75-3.41,3.15-5.62c1.48-8.19,2.97-16.39,4.45-24.58
		C447.58,417.46,435.8,413.6,424.18,408.38z"/>
	<path class="st11" d="M461.74,420.22c-1.23,7.34-2.45,14.68-3.68,22.02c11.39,2.45,22.89,4.42,34.44,5.92
		c1.83-7.35,3.11-14.84,3.82-22.38C485.15,425.02,474.05,423.21,461.74,420.22z"/>
	<path class="st11" d="M583.78,417.1c0.58,11.47,3.09,22.85,7.39,33.5c9.73-0.89,19.4-2.35,28.95-4.37
		c1.13-0.24,2.35-0.54,3.09-1.43c0.97-1.16,0.77-2.88,0.52-4.37c-1.93-11.42-3.87-22.84-5.8-34.27
		C606.79,409.19,595.65,412.23,583.78,417.1z"/>
	<path class="st11" d="M617.24,405.93c1.81,7.92,3.62,15.83,5.43,23.75c0.38,1.65,0.94,3.53,2.5,4.19c1.09,0.46,2.34,0.16,3.49-0.15
		c7.67-2.07,15.34-4.14,23.01-6.21c1.07-0.29,2.27-0.68,2.74-1.68c0.37-0.79,0.18-1.72-0.03-2.57c-2.56-10.6-5.13-21.2-7.69-31.8
		C637.55,396.76,628,401.35,617.24,405.93z"/>
	<path class="st12" d="M430.12,566.19c13.25-21.84,35.61-37.96,60.52-43.62c24.91-5.66,52.04-0.79,73.43,13.18
		c15.38-22.04,40.43-37.07,67.12-40.27c26.69-3.19,54.58,5.5,74.72,23.29c1.29,1.14,2.63,2.46,2.85,4.16
		c0.22,1.7-0.73,3.3-1.66,4.74c-15.34,23.47-37.99,41.68-63.2,53.95s-52.93,18.82-80.81,21.75c-23.51,2.47-47.5,2.39-70.55-2.9
		C469.49,595.18,447.37,584.43,430.12,566.19z"/>
</g>
<g id="Ebene_26">
	<path class="st6" d="M562.52,539.47c-17.84-11.38-39.5-16.65-60.58-14.74c-21.08,1.91-41.44,10.99-56.94,25.4
		c-5.69,5.29-11.1,12.54-9.46,20.14c1.32,6.12,6.82,10.35,12.19,13.56c22.18,13.25,48.33,18.43,74.11,20.06
		c33.87,2.14,68.37-1.59,100.13-13.55c31.75-11.97,60.66-32.45,80.31-60.11c2.16-3.05,4.31-6.67,3.42-10.3
		c-1.38-5.57-8.56-7.05-14.3-6.84c-21.97,0.78-42.62,9.94-63.24,17.54C607.53,538.22,582.04,551.92,562.52,539.47z"/>
</g>
<g id="Ebene_6">
	<path class="st8" d="M365.87,413.12c17.5-24.83,77.4,2.51,95.86,6.53c151.68,33.01,219.85-78.45,262.36-41.96
		c50.11,43.01,5.75,203.13-156.03,225.25C399.89,625.93,334.3,457.91,365.87,413.12z"/>
	<path class="st8" d="M421.6,413.12c-2.26,22.12-7.18,29.23-3.72,30.46c9.02,3.22,33.45,10.85,35.56,8.74
		c1.15-1.15,1.47-2.19,1.74-3.78c1.46-8.56,2.91-17.78,4.37-26.34"/>
	<path class="st8" d="M459.54,443.3c1.49-0.65,23.74,4.09,33,5.53c2.92,0.46,1.94-8.22,3.38-19.66"/>
	<path class="st8" d="M582.84,421.75c-0.33-1.21,0.09-0.46-0.24-1.67c1.08,6.56,5.65,32.51,6.75,32.56
		c5.8,0.25,28.59-4.55,34.27-6.63c2.23-0.82-5.75-27.77-7.34-36.91"/>
	<path class="st8" d="M430.12,571.22c12.5-22.81,34.93-39.95,60.22-46.03c25.29-6.08,53.06-0.99,74.56,13.65
		c15.2-24.08,39.5-43.09,67.8-46.23s57.8,7.24,77.91,27.4"/>
	<path class="st8" d="M625.11,433.82c9.85-3.59,19.98-6.44,30.25-8.52c-3.22-10.32-6.44-20.63-9.66-30.95"/>
</g>
<g id="Ebene_15">
	<path class="st13" d="M454.85,291.29c-16.27-9.84-39.19-5.52-51.86,8.65c-12.67,14.18-14.74,36.34-6.23,53.35
		c8.5,17,26.52,28.43,45.42,30.46c11.16,1.2,23.16-0.89,31.71-8.16c6.51-5.53,10.48-13.62,12.34-21.96
		C491.97,327.76,474.13,302.96,454.85,291.29z"/>
</g>
<g id="Ebene_16">
	<path class="st14" d="M429.46,364.57c-10.87-0.38-21.74-0.76-32.61-1.14c-4.95-0.17-10.09-0.31-14.64,1.65
		c-4.55,1.96-8.32,6.67-7.52,11.56c0.56,3.43,3.24,6.22,6.34,7.78c3.1,1.56,6.61,2.09,10.06,2.5c15.04,1.83,30.29,2.09,45.33,0.25
		c3.38-0.41,6.85-0.97,9.75-2.75c2.9-1.78,5.12-5.08,4.65-8.45c-0.68-4.85-6.07-7.32-10.7-8.92
		C436.46,365.79,432.79,364.52,429.46,364.57z"/>
	<path class="st14" d="M683.58,350.56c-13.28-1.03-27.32-1.93-39.23,4.04c-3.15,1.58-6.17,3.72-7.87,6.81s-1.74,7.28,0.62,9.88
		c2.3,2.53,6.07,2.97,9.49,3.01c14.99,0.18,29.71-4.05,43.61-9.64c2.03-0.82,4.21-1.81,5.17-3.78c1.31-2.69-0.4-6.06-2.96-7.61
		C689.86,351.71,686.87,350.81,683.58,350.56z"/>
</g>
<g id="Ebene_7">
	<path class="st15" d="M448.19,326.77c-3.92-5.07-11.98-6.29-17.23-2.61c-5.25,3.68-6.85,11.66-3.43,17.08s11.32,7.41,16.9,4.25
		C450,342.34,453.59,333.75,448.19,326.77z"/>
	<path class="st15" d="M644.85,324.38c-3.58-4.23-10.94-4.06-14.7,0c-3.76,4.06-3.62,10.95-0.08,15.21s9.83,5.76,15.11,4.09
		c4.44-1.41,8.32-5.22,8.76-9.86C654.39,329.18,650.51,324.28,644.85,324.38z"/>
	<line class="st15" x1="631.28" y1="331.22" x2="646.82" y2="334.88"/>
</g>
<g id="Ebene_17">
	<path class="st9" d="M446.71,325.83c-0.13-0.47-0.67-0.76-1.15-0.69s-0.89,0.45-1.07,0.91c-0.18,0.46-0.14,0.97,0.01,1.44
		c0.13,0.4,0.36,0.78,0.69,1.04s0.78,0.4,1.19,0.3c0.68-0.16,1.1-0.91,1.06-1.6C447.39,326.53,446.98,325.91,446.71,325.83z"/>
	<path class="st9" d="M649.49,326.34c-0.23-1.02-1.53-1.55-2.49-1.14c-0.96,0.41-1.49,1.52-1.43,2.57c0.09,1.4,1.24,2.7,2.64,2.85
		c1.4,0.14,2.84-0.99,2.93-2.39C651.22,326.82,649.82,325.48,649.49,326.34z"/>
	<path class="st16" d="M389.18,255.87c10.11-10.11,14.82-12.58,25.21-19.67c6.39-4.36,9.13-45.28-7.73-48.63
		c-17.98-3.57-68.74,38.21-56.47,56.77C352.95,248.51,386.16,253.2,389.18,255.87z"/>
	<path class="st16" d="M667.54,239.14c13.09,8.09,32.65,17.1,34.31,16.73c22.06-4.98,36.1-10.64,32.45-30.25
		c-2.29-12.3-39.96-34.58-52.87-30.24C663.62,201.35,664.3,220.52,667.54,239.14z"/>
</g>
<g id="Ebene_8">
	<path class="st15" d="M536.87,357.38c-2.67-5.66-7.63-9.94-10.59-15.46s-3.02-13.69,2.45-16.73c2.6-1.45,5.76-1.33,8.73-1.17
		c6.04,0.32,12.09,0.64,18.13,0.97c4.74,0.25,10.18,0.88,12.83,4.81c2.72,4.03,1.12,9.44-0.56,14c-2.35,6.37-4.97,13.13-10.49,17.09
		S540.67,365.42,536.87,357.38z"/>
	<path class="st8" d="M547.59,361.86c-0.15,9.6-0.3,19.21-0.46,28.81"/>
</g>
<g id="Ebene_27">
	<path class="st17" d="M478.53,263.14c3.51,3.47,7.01,6.94,10.52,10.42"/>
	<path class="st17" d="M511.12,250.26c2.1,5.28,4.2,10.56,6.3,15.84"/>
	<path class="st17" d="M553.09,246.65c0.16,5.51,0.31,11.01,0.47,16.52"/>
	<path class="st19" d="M599.98,254.94c-2.3,4.88-4.59,9.76-6.89,14.65"/>
</g>
<g id="Ebene_28">
	<path class="st20" d="M710.27,215.53c3.97,1.31,8.05,2.68,11.22,5.4s5.23,7.17,3.94,11.14c-0.83,2.54-2.84,4.48-4.81,6.27
		c-3.17,2.89-6.43,5.68-9.77,8.38c-1.08,0.87-2.2,1.76-3.53,2.17c-1.33,0.41-2.92,0.25-3.89-0.74c-0.95-0.98-1.07-2.53-0.72-3.84
		c0.35-1.32,1.1-2.49,1.72-3.7c3.28-6.38,3.08-14.43-0.53-20.64c-0.61-1.05-1.31-2.06-1.67-3.22c-0.35-1.16-0.29-2.54,0.53-3.43
		c1.46-1.61,4.19-0.73,5.86,0.67C710.28,215.39,711.78,217.29,710.27,215.53z"/>
	<path class="st20" d="M380.68,211.49c5.54-4.41,11.35-8.48,17.39-12.17c2.21-1.35,5.14-2.64,7.23-1.1
		c1.54,1.13,1.82,3.28,1.98,5.19c0.55,6.86,1.11,13.71,1.66,20.57c0.17,2.14,0.34,4.35-0.38,6.37s-2.57,3.8-4.71,3.73
		c-2.35-0.08-4.07-2.24-5.13-4.34c-1.06-2.1-1.92-4.48-3.85-5.83c-2.51-1.75-6.01-1.12-8.71,0.33c-2.7,1.44-4.98,3.59-7.71,4.96
		c-1.75,0.87-3.78,1.41-5.66,0.89c-2.9-0.81-4.64-4.11-4.3-7.11c0.33-2.99,2.35-5.59,4.81-7.33
		C375.76,213.9,378.75,213.03,380.68,211.49z"/>
	<path class="st20" d="M774.55,405.48c33.74,46.99,70.93,91.51,111.17,133.07c3.09,3.19,7.35,6.64,11.47,4.98
		c3.16-1.27,4.53-5.23,3.94-8.59c-0.58-3.36-2.64-6.25-4.65-9c-32.05-43.95-66.64-86.14-105.04-124.66
		c-2.24-2.24-4.57-4.53-7.52-5.69c-2.95-1.16-6.69-0.92-8.81,1.43C772.99,399.36,773.49,404.01,774.55,405.48z"/>
	<path class="st20" d="M771.5,525.63c-19.39,31.17-46.81,57.31-78.88,75.18c-16.77,9.35-34.7,16.43-51.83,25.11
		s-33.75,19.2-46,33.98c-4.02,4.85-7.56,12.01-3.79,17.05c2.74,3.66,8,4.15,12.55,3.76c18.65-1.58,35.18-12.18,50.55-22.86
		c28.31-19.68,55.67-40.73,81.96-63.05c17.61-14.95,34.9-30.67,48.02-49.68c2.8-4.06,5.46-8.43,6.13-13.32
		c0.66-4.89-1.16-10.43-5.5-12.78C780.35,516.67,775.12,519.8,771.5,525.63z"/>
	<path class="st20" d="M664.68,405.75c7.79-2.44,16.45-1.27,23.84,2.22c7.39,3.49,13.59,9.14,18.67,15.54
		c3.52,4.43,7.3,9.7,12.94,10.16c5.47,0.45,10.17-4.02,12.74-8.87c7.17-13.54,2.19-32.21-10.77-40.38
		c-8.28-5.22-18.71-6.2-28.35-4.49c-9.64,1.7-18.65,5.88-27.35,10.37c-2.89,1.49-5.83,3.09-7.89,5.61c-2.06,2.52-3.02,6.2-1.51,9.08
		C658.52,407.85,663.01,408.96,664.68,405.75z"/>
	<path class="st20" d="M599.65,523.91c14.75-13.75,33.94-22.65,53.97-25.03c2.27-0.27,4.63-0.44,6.77,0.36
		c2.14,0.8,3.96,2.86,3.78,5.14c-0.21,2.56-2.68,4.26-4.93,5.52c-15.64,8.8-32.47,15.5-49.88,19.85c-2.42,0.61-4.98,1.17-7.39,0.54
		S596.57,526.78,599.65,523.91z"/>
	<path class="st20" d="M646.99,257.01c28.07,7.15,54.45,20.87,76.42,39.76c4.07,3.5,8.09,7.3,10.37,12.16
		c2.28,4.86,2.49,11.04-0.78,15.29c-3.46,4.5-9.94,5.74-15.47,4.51c-5.54-1.23-10.38-4.49-15.07-7.68
		c-20.95-14.23-41.89-28.47-62.84-42.7c-3.23-2.19-6.53-4.46-8.77-7.66c-2.24-3.2-3.2-7.59-1.39-11.04
		C631.25,256.2,636.47,254.33,646.99,257.01z"/>
	<path class="st20" d="M624.53,182.7c-0.77,9.66-6.31,18.82-14.5,24C608.21,196.64,613.54,185.71,624.53,182.7z"/>
	<path class="st20" d="M590.26,168.99c0.24,8.58-1.6,17.22-5.33,24.95c-1.13,2.35-3.45,5-5.84,3.96c-1.62-0.71-2.12-2.75-2.28-4.52
		C575.98,183.77,579.51,173.87,590.26,168.99z"/>
	<path class="st20" d="M551.04,172.43c4.06-0.52,8.11-1.04,12.17-1.56c1.1,10.59-1.77,21.54-7.93,30.22
		c-1.26,1.77-2.95,3.61-5.13,3.61c-2.92,0-4.69-3.22-5.43-6.05c-1.81-6.9-1.37-14.37,1.23-21.02c1.37-3.49,3.59-6.99,7.12-8.26
		S561.41,170.28,551.04,172.43z"/>
	<path class="st20" d="M514.53,178.65c7.28,2.74,12.13,10.86,11.09,18.57c-0.43,3.21-2.44,6.77-5.68,6.9
		c-2.12,0.08-3.99-1.38-5.37-2.98C508.93,194.64,508.34,184.29,514.53,178.65z"/>
	<path class="st20" d="M471.34,175.69c7.96,4.37,14.09,11.95,16.69,20.65c1.42,4.75,1.07,11.16-3.5,13.08
		c-2.82,1.19-6.21-0.02-8.37-2.19c-2.16-2.17-3.33-5.12-4.29-8.02C469.9,193.18,468.57,186.95,471.34,175.69z"/>
	<path class="st20" d="M452.78,209.04c3.61,1.51,7.38,3.13,9.79,6.21c2.42,3.07,2.87,8.07-0.1,10.62
		c-3.35,2.87-8.95,0.83-11.28-2.92C448.86,219.2,448.87,214.51,452.78,209.04z"/>
	<path class="st20" d="M637.25,746.19c-7.31,15.87-8.39,34.51-2.96,51.12c8.08-17.06,8.9-37.42,2.24-55.08
		C633.73,743.97,631.81,747.06,637.25,746.19z"/>
	<path class="st20" d="M480.84,749.41c-4,25.43-3.17,51.62,2.43,76.74c4.92-18.41,6.36-37.74,4.21-56.67
		C486.85,763.97,485.17,757.54,480.84,749.41z"/>
	<path class="st20" d="M471.85,922.18c9.47,15.94,19.39,31.61,29.77,46.98c3.8,5.63,9.49,11.96,16.05,10.22
		c3.81-1.01,6.47-4.71,7.25-8.57s-0.02-7.87-1.15-11.65c-4.9-16.36-15.82-30.13-26.51-43.46c-3.36-4.19-6.84-8.48-11.56-11.04
		s-11.04-2.95-15.14,0.51S467.8,915.37,471.85,922.18z"/>
	<path class="st20" d="M638.75,919.19c11.55,5.87,17.13,19.05,21.12,31.37s7.84,25.66,17.87,33.86
		c-0.42-25.24-11.37-50.15-29.69-67.52c-1.58-1.49-3.49-3.03-5.65-2.79C640.25,914.36,638.76,917.6,638.75,919.19z"/>
	<path class="st20" d="M311.86,431.86c-22.19,9.38-39.86,28.87-47.04,51.87c-0.95,3.03-1.38,7.04,1.31,8.72
		c2.14,1.34,4.93,0.26,7.17-0.9c14.35-7.46,27-18.17,36.73-31.09c2.23-2.96,4.35-6.14,5.09-9.76c0.74-3.63-0.2-7.82-3.16-10.04
		S303.97,439.21,311.86,431.86z"/>
	<path class="st20" d="M545.31,328.91c4.72,0.28,9.44,0.56,14.16,0.84c1.13,0.07,2.36,0.17,3.2,0.93c1.02,0.93,1.11,2.48,1.08,3.86
		c-0.14,5.53-1.11,11.04-2.88,16.29c-0.46,1.36-0.99,2.74-1.96,3.79s-2.48,1.73-3.86,1.34c-2.53-0.72-2.95-4.16-2.43-6.74
		c0.52-2.58,1.4-5.52-0.16-7.65c-1.13-1.54-3.18-2.05-5.05-2.45c-2.57-0.55-5.13-1.1-7.7-1.65c-2.05-0.44-4.47-1.2-5.04-3.22
		c-0.48-1.72,0.77-3.56,2.4-4.31c1.62-0.75,3.5-0.68,5.28-0.52C544.15,329.61,545.98,329.85,545.31,328.91z"/>
</g>
</svg>
