<svg width="48" height="48" viewBox="0 0 48 48" fill="none" xmlns="http://www.w3.org/2000/svg">
<circle cx="29" cy="24" r="6" fill="#CEE0FE"/>
<circle cx="19" cy="24" r="6" fill="white"/>
<path fill-rule="evenodd" clip-rule="evenodd" d="M19 17C15.134 17 12 20.134 12 24C12 27.866 15.134 31 19 31C20.9055 31 22.6331 30.2387 23.8953 29.0036C25.1575 30.2387 26.8851 31 28.7906 31C32.6566 31 35.7906 27.866 35.7906 24C35.7906 20.134 32.6566 17 28.7906 17C26.8851 17 25.1575 17.7613 23.8953 18.9964C22.6331 17.7613 20.9055 17 19 17ZM28.7906 29.8497C27.1734 29.8497 25.7094 29.1934 24.6505 28.1326C25.499 26.9744 26 25.5457 26 24C26 22.4543 25.499 21.0256 24.6505 19.8674C25.7094 18.8066 27.1734 18.1503 28.7906 18.1503C32.0213 18.1503 34.6403 20.7693 34.6403 24C34.6403 27.2307 32.0213 29.8497 28.7906 29.8497ZM13.1503 24C13.1503 20.7693 15.7693 18.1503 19 18.1503C22.2307 18.1503 24.8497 20.7693 24.8497 24C24.8497 27.2307 22.2307 29.8497 19 29.8497C15.7693 29.8497 13.1503 27.2307 13.1503 24ZM22.6511 22.1725C22.7642 22.0514 22.7576 21.8616 22.6365 21.7485L22.2163 21.3563C22.0952 21.2433 21.9053 21.2498 21.7923 21.3709L18.3176 25.0938L16.6982 23.3335C16.586 23.2116 16.3962 23.2037 16.2743 23.3159L15.8512 23.705C15.7293 23.8172 15.7214 24.007 15.8336 24.1289L18.3114 26.8222L22.6511 22.1725ZM31.4432 26.5842C31.3298 26.6977 31.1463 26.6991 31.0311 26.5874L29.2103 24.8218L27.5306 26.5726C27.4167 26.6914 27.2274 26.6933 27.111 26.577L26.6957 26.1617C26.5827 26.0487 26.5808 25.866 26.6915 25.7507L28.367 24.0041L26.5576 22.2495C26.4399 22.1354 26.4385 21.9469 26.5544 21.831L26.9697 21.4157C27.0832 21.3022 27.2667 21.3008 27.3819 21.4125L29.1802 23.1564L30.8386 21.4277C30.9526 21.3089 31.1419 21.3069 31.2582 21.4233L31.6735 21.8386C31.7865 21.9516 31.7884 22.1343 31.6778 22.2496L30.0235 23.9741L31.8553 25.7504C31.973 25.8645 31.9745 26.053 31.8585 26.1689L31.4432 26.5842Z" fill="#1679F9"/>
</svg>
