<?xml version="1.0" encoding="utf-8"?>
<!-- Generator: Adobe Adobe Illustrator 24.2.0, SVG Export Plug-In . SVG Version: 6.00 Build 0)  -->
<svg version="1.1" xmlns="http://www.w3.org/2000/svg" xmlns:xlink="http://www.w3.org/1999/xlink" x="0px" y="0px" width="1920px"
	 height="1920px" viewBox="0 0 1920 1920" style="enable-background:new 0 0 1920 1920;" xml:space="preserve">
<style type="text/css">
	.st0{fill:#B2A7A7;}
	.st1{opacity:0.2196;}
	.st2{opacity:0.0588;}
	.st3{opacity:0.8196;fill:none;stroke:#000000;stroke-width:8;stroke-miterlimit:10;}
	.st4{fill:none;stroke:#000000;stroke-width:8;stroke-miterlimit:10;}
	.st5{fill:#FFFFFF;}
	.st6{fill:#EEE6E3;stroke:#EEE6E3;stroke-width:22;stroke-linecap:round;stroke-miterlimit:10;}
	.st7{fill:#EEE6E3;stroke:#EEE6E3;stroke-width:17;stroke-linecap:round;stroke-miterlimit:10;}
	.st8{fill:#EEE6E3;stroke:#EEE6E3;stroke-width:19;stroke-linecap:round;stroke-miterlimit:10;}
	.st9{fill:#EEE6E3;stroke:#EEE6E3;stroke-width:18;stroke-linecap:round;stroke-miterlimit:10;}
	.st10{fill:none;stroke:#000000;stroke-width:8;stroke-linecap:round;stroke-linejoin:round;stroke-miterlimit:10;}
	.st11{opacity:0.0784;}
	.st12{opacity:0.251;}
	.st13{fill:#CCBABA;}
	.st14{opacity:0.0784;fill:#FFFFFF;}
	.st15{opacity:0.2784;fill:#FFFFFF;}
	.st16{opacity:0.0902;}
	.st17{fill:#EEE6E3;}
	.st18{opacity:0.2392;}
	.st19{fill:#72250A;stroke:#000000;stroke-width:8;stroke-linecap:round;stroke-linejoin:round;stroke-miterlimit:10;}
	.st20{fill:#EEE6E3;stroke:#EEE6E3;stroke-width:8;stroke-linecap:round;stroke-linejoin:round;stroke-miterlimit:10;}
	.st21{fill:none;stroke:#F0E8E4;stroke-width:8;stroke-linecap:round;stroke-linejoin:round;stroke-miterlimit:10;}
	.st22{opacity:0.0706;}
	.st23{fill:none;}
	.st24{fill:#B2BCBF;}
	.st25{fill:#798185;}
	.st26{opacity:0.2314;}
	.st27{opacity:0.2;}
	.st28{stroke:#000000;stroke-width:8;stroke-linecap:round;stroke-linejoin:round;stroke-miterlimit:10;}
	.st29{fill:none;stroke:#000000;stroke-width:20;stroke-linecap:round;stroke-linejoin:round;stroke-miterlimit:10;}
	.st30{opacity:0.3804;fill:#FFFFFF;}
	.st31{opacity:0.2706;fill:#FFFFFF;}
	.st32{opacity:0.3216;fill:#F0CCCC;}
	.st33{opacity:0.3412;fill:#F0CCCC;}
	.st34{fill:#F0CCCC;}
</style>
<g id="Ebene_44">
</g>
<g id="Ebene_21">
	<path class="st0" d="M1194.91,1185.63c-8.5,108.1,11.85,431.78,11.85,431.78l94.75-1.3l-33.01-443.14
		C1268.5,1172.98,1196.32,1167.71,1194.91,1185.63z"/>
	<path class="st0" d="M897.32,1126.21c-10.36,110.87,17.72,364.11,31,481.8c2.49,22.05,94.98,0.17,94.98,0.17l-32.38-444.86
		C990.93,1163.32,898.03,1118.63,897.32,1126.21z"/>
</g>
<g id="Ebene_33">
	<path class="st1" d="M903.11,1257.34c13.13-7.86,17.37-32.97,22.25-47.47c-1.34,25.61,18.09,61.23,43.73,61.39
		c0,57.77,1.23,24.28-1.46,114.13c-1.76,58.76-25.77,116.38-39.7,173.49C910.88,1458.64,914.84,1357.65,903.11,1257.34z"/>
	<path class="st2" d="M1198.03,1269.55c2.01,12.93,25.08,17.12,35.84,9.67c10.76-7.45,15.1-21.04,18.34-33.72
		c11.21,56.7,17.12,114.82,11.86,172.38c-5.26,57.55-22.06,114.67-56.31,162.45C1200.98,1476.88,1193.29,1372.9,1198.03,1269.55z"/>
</g>
<g id="Ebene_23">
	<polygon class="st3" points="898.64,1229.97 926.55,1561.59 1016.33,1572.07 998.85,1211.61 	"/>
</g>
<g id="Ebene_42">
</g>
<g id="Ebene_41">
</g>
<g id="Ebene_43">
</g>
<g id="Ebene_24">
	<polygon class="st4" points="1192.83,1241.62 1205.06,1589.02 1301.66,1587.13 1277.83,1240.37 	"/>
</g>
<g id="Ebene_22">
	<path class="st0" d="M652.22,995.54c-34.08,20.74-64.68,48.43-72.67,87.52c-2.36,11.54,2.57,31.79,8.12,42.19
		c11.99,22.46,47.53,20.76,65.82,3.04c18.29-17.72,23.84-44.45,28.51-69.48c-8.93,29.4-16.43,60.44-14.29,91.09
		c0.72,10.27,6.44,21.31,13.68,28.63c11.53,11.66,32.4,8,44.22-3.36c11.82-11.37,16.82-27.91,21.14-43.73
		c2.42,28.9,2.52,60.08,16.27,85.61c4.96,9.22,19.74,15.91,29.7,19.11c14.43,4.64,30.07-6.69,35.68-20.77
		c5.61-14.08,3.86-29.88,2.02-44.93c13.86,30.23-5.47,69.87,34.19,90.08c18.71,9.54,42.89-2.15,53.35-20.36
		c10.45-18.21,10.21-40.62,7.11-61.39c1.38,23.4,8.52,46.45,20.6,66.54c4.85,8.07,10.92,16.02,19.6,19.66
		c17.41,7.31,37.83-6.65,44.47-24.33s3.38-37.34,0.05-55.92c4.57,18.56,2.08,38.35,6.93,56.84s21.79,36.7,40.4,32.32
		c24.58-5.77,25.63-40.07,20.98-64.88c1.71,18.11,3.59,36.79,12.37,52.72c8.78,15.92,26.41,28.46,44.35,25.5
		c30.92-5.1,38.08-45.78,37.9-77.11c1.41,15.13,2.98,30.78,10.48,43.99c7.5,13.22,22.64,23.37,37.5,20.16
		c13.75-2.98,23.2-16.54,25.69-30.39c2.5-13.85-0.56-28.03-3.73-41.74c-2.11,29.11,11.73,58.88,35.35,76.02
		c5.22,3.79,11.09,7.06,17.51,7.64c18.68,1.67,39.46-16.3,41.76-34.91c2.3-18.61-8.72-41.6-0.15-58.28
		c0.38,31.71,41.36,61.45,70.38,48.67c29.02-12.78,33.91-62.73,10.78-84.41c13.49,26.42,41.91,62.84,69.8,52.74
		c15.55-5.63,20.13-28.61,20.45-45.14c0.31-16.54-5.97-32.41-12.14-47.75c7.43,7.55,15.96,7.94,26.3,10.26s26.24,5.68,31.39-3.58
		c2.55-4.59-2.9-14.48-4.59-18.25c-9.17-20.43-30.27-35.14-48.81-47.7c10.7,7.75,24.32,7.01,37.52,6.52
		c22.99-0.85,45.04-7.46,40.5-30.01c-4.54-22.56-48.56-69.6-42.8-68.05c25.68,6.91,46.29,14.04,68.16-5.91
		c17.16-15.67-18.14-50.59-34.91-66.68c10.94,14.73,43.88,7.8,50.65-9.26c6.77-17.06-3.75-42.45-14.17-57.56
		c-10.41-15.11-27.46-23.53-35.29-40.13c18.82,18.37,60.84,6.54,69.82-18.19c8.98-24.73-8.1-55.06-23.11-76.66
		c-15.01-21.6-34.67-39.89-47.79-62.69c5.22,16.13,44.47,19.12,55.42,6.18c10.95-12.94-5.74-34.51-16.32-47.76
		c-10.58-13.25-27.05-20.35-43.4-24.87c-16.34-4.52-32.75-10.36-48.42-16.85c16-0.47,31.29-1.81,44.97-10.13
		c15.17-35.73-73.92-56.61-111.88-56.61c13.23,2.1,22.62,6.84,36.2,6.72c13.58-0.12,36.32-12.18,34.77-25.67
		c-0.83-7.23-7.2-19.64-13.01-24.02c-27.33-20.66-67.91-20.81-102.12-18.92c31.96-6.49,51.73-45.36,49.46-77.89
		c-4.13-59.29-39-54.57-69.42-66.33c-18.24-7.05-42.18-17.08-60-9.02c-28.28,12.8-29.12,47.99-30.02,79.02
		c-11.37-2.81-24.58-6.56-35.96-9.36c10.04-24.13,17.12-42.48,16.21-68.59c-0.19-5.31-3.49-17.15-7.01-21.13
		c-8.56-9.67-28.61,5.05-36.96,14.91c-15.68,18.53-26.21,41.38-30.1,65.34c14.37-23.45,25.37-56.02,14.86-81.43
		c-3.23-7.81-14.12-21.63-22.16-24.21c-17.09-5.49-33.41,24.28-34.31,42.21s9.08,33.22-2.47,46.96c2.62-20.51,3.34-45.25-7.2-63.03
		s-28.46-27.64-46.87-5.7c-17.19,20.49,3.14,56.25-3.12,82.26c1.52-32.01,5.71-56.62-31.03-85.48c-3.5-2.75-14.73-4.49-19.07-3.51
		c-6.56,1.48-8.47,9.83-8.64,16.55c-0.65,25.79,5.01,51.71,16.36,74.88c-12.3-26.17-11.16-40.2-37.13-74.01
		c-5.53-7.19-20.57-17-28.91-20.55c-19.86-8.44-46.91,4.52-44.43,39.18c1.54,21.52,10.87,41.31,22.61,59.42
		c-6.84-12-18.55-19.79-26.48-31.1c-18.25-26.04-30.46-3.53-35.41,9.36c-7.68,19.96,19.91,35,27.29,55.07
		c-15.65,2.31-31.29,4.62-46.94,6.93c-2.37-43.4-8.18-105.07-48.91-120.24c-36.48-13.59-78.2,21.81-105.36,49.7
		c-13.42,13.78-26.72,29.92-27.7,49.12c-1.79,35.03,35.79,57.33,67.93,71.38c-26.53,8.3-40.42,12.36-61,19.63
		c-20.58,7.27-41.46,19.55-58.09,33.69c-16.64,14.13-38.46,39.3-33.48,60.55c4.98,21.25,43.65,38.84,64.16,31.33
		c-22.6,3.35-44.52,5.68-65.55,14.63c-14.66,6.24-35.74,22.47-41.06,39.55c-5.32,17.08,10.12,43.63,27.99,44.48
		c5.99,0.28,11.82-1.78,17.44-3.89c13.84-5.19,27.52-10.82,41.01-16.88c-30.85,11.34-65.87,21.73-89.24,44.84
		c-10.97,10.85-14.67,35.39-6.14,48.25c7.06,10.64,20.38,2.09,32.84-0.7c17.08-3.82,34.26-7.54,49.68-12.67
		c-22.84,5.16-49.34,12.34-68.53,25.77c-10.19,7.13-19.58,15.79-24.47,27.22c-4.89,11.43-3.89,29.3,7.47,37.56
		c9.14,6.65,27.57,1.67,38.14-2.35c24.32-9.23,47.91-20.35,70.51-33.24c-41.36,17.1-82.17,33.24-116.66,61.77
		c-10.15,8.39-18.12,24.69-24.15,36.4c-6.03,11.71-7.4,26.61-0.38,37.74c8.42,13.35,26.64,17.68,42.08,14.39
		c15.44-3.3,28.8-12.64,41.68-21.77c-22.28,6.9-38.61,25.65-52.72,44.23c-10.2,13.43-15.27,28.06-10.04,44.1
		c6.1,18.68,24.67,32.52,43.85,28.22c19.18-4.3,36.36-21.3,54.49-29.23C654.39,991.68,655.69,993.43,652.22,995.54z"/>
</g>
<g id="Ebene_48">
	<path class="st6" d="M1001.23,399.08c10.39,7.96,18.64,18.69,23.67,30.77"/>
	<path class="st7" d="M1072.46,376.86c6.25,9.8,10.61,20.81,12.76,32.23"/>
	<path class="st8" d="M1130.27,371.48c1.57,10.74,3.15,21.49,4.72,32.23"/>
	<path class="st7" d="M1184.6,408.42c4.92-11.19,9.85-22.38,14.77-33.58"/>
	<path class="st9" d="M1245.09,431.22c4.38-12.71,12.21-24.21,22.43-32.95"/>
	<path class="st9" d="M1303.2,282.42c0.96-2.46,1.93-4.91,2.89-7.37"/>
</g>
<g id="Ebene_1">
	<g id="Ebene_11">
	</g>
	<path class="st10" d="M769.22,419.31c-67.96,14.47-169.91,63.38-146.48,122.42c8.26,20.81,59.48,17.52,59.48,17.52
		s-127.66,13.18-99.93,81.28c10.28,25.26,77.6,2.39,77.6,2.39s-112.52,24.85-95.23,79.78c10.79,34.27,95.08-9.19,90.93-6.1
		c-28.03,20.87-114.43,24.81-96.68,81.84c13.99,44.92,156.38-37.05,134.96-25.99c-31.89,16.46-194.86,55.46-154.6,139.72
		c16.8,35.15,72.74-4.33,72.74-4.33s-89.87,57.21-43.5,107.58c23.09,25.08,82.23-23.66,82.23-23.66s-118.52,86.3-52.45,143.59
		c48.41,41.97,82.3-77.43,82.3-77.43s-41.47,111.91,9.68,129.91c36.85,12.96,55.67-56.48,55.67-56.48s-4.6,105.46,52.45,108.93
		c35.69,2.17,36.31-66.97,36.31-66.97s-11.52,79.55,31.08,86.97c74.75,13.03,58.48-81.32,58.48-81.32s-0.9,86.34,44.8,92.34
		c47.69,6.26,41.54-82.65,41.54-82.65s-3.11,89.6,35.92,86.72c48.25-3.55,31.85-64.13,31.85-64.13s-1.33,81.96,51.64,79.07
		c50.5-2.76,45.99-75.85,45.99-75.85s1.77,18.83,9.49,36.25c7.83,17.67,21.77,33.88,46.19,27.5c28.35-7.41,12.91-71.81,12.91-71.81
		s13.23,87.71,49.22,80.69c63.74-12.43,41.15-89.56,41.15-89.56s30.1,68.41,69.74,45.54c41.62-24.01,16.59-86.69,16.59-86.69
		s42.13,66.74,65.54,53.99c35.89-19.54,9.5-95.14,9.5-95.14s49.07,22.47,56.76,10.27c12.04-19.08-52.73-73.21-52.73-73.21
		s59.78,28.21,77.46,0.81c14.52-22.51-41.96-87.14-41.96-87.14s55.67,14.7,67.14-3.91c12.16-19.73-28.41-67.9-28.41-67.9
		s33.7,10.21,41.71-2.7c24.28-39.16-40.9-102.44-40.9-102.44s60.7,25.55,67.71-34.7c5.33-45.81-74.16-125.62-74.16-125.62
		s52.14,34.55,57.31,0.49c10.18-67.02-109.76-83.6-109.76-83.6s51.66,3.77,48.94-20.91c-4.27-38.75-117.53-42.83-117.53-42.83
		s76.02,7.11,72.64-21.94c-6.2-53.35-110.56-40.99-110.56-40.99s105.52-88.66-6.94-142.68c-125.16-60.12-107.6,66.52-107.6,66.52
		l-35.96-9.36c0,0,36.51-87.68,0.03-94.23c-26.56-4.77-53.67,79.71-53.67,79.71s38.61-81.52-14.14-101.67
		c-31.94-12.2-33.47,88.76-33.47,88.76s4.61-87.06-35.82-82.58c-39,4.32-19.05,93.88-19.05,93.88s-8.56-97.95-51.61-83.78
		c-15.9,5.24,4.81,82.97,4.81,82.97s-33.94-117.54-96.62-85.56c-37.48,19.12,13.51,94.44,13.51,94.44s-36.5-49.93-50.38-41.5
		c-40.11,24.35,14.07,72.16,14.07,72.16l-49.22,10.49c0,0,2.7-200.51-134.58-90.72C615.41,386.06,804.91,411.71,769.22,419.31z"/>
</g>
<g id="Ebene_36">
	<path class="st11" d="M767.09,418.33c-38.79,9.11-75.67,26.27-107.62,50.08c-22.64,16.87-44.6,42.31-38.99,69.98
		c0.83,4.12,2.38,8.27,5.48,11.11c3.12,2.85,7.39,4,11.5,4.97c16.18,3.81,32.7,6.18,49.3,7.08c-25.04-2.52-49.97,3.38-71.81,15.89
		c-11.65,6.67-24.5,14.79-31.67,26.14c-7.17,11.34-6.52,32.49,2.74,42.21c9.44,9.91,25.21,9.54,38.7,7.21
		c15.06-2.61,29.86-6.76,44.08-12.38c-37.96,15.86-72.58,39.66-100.98,69.42c-14.95,15.66-28.7,34.18-31.05,55.7
		c-2.35,21.52,10.76,45.92,32.16,49.23c20.65,3.2,38.93-12.97,59.18-18.13c-25.32,9.3-47.9,25.09-67.51,43.6
		c-10.58,9.99-20.62,21.21-25.48,34.92s-3.51,30.44,6.6,40.91c10.03,10.39,26.43,12.38,40.38,8.66s26.07-12.22,37.83-20.61
		c-20.47,16.5-41.47,33.62-54.06,56.71c-8.72,15.99-11.77,38.53,2.06,50.38c13.71,11.74,34.93,5.67,50.56-3.35
		c12.14-7.01,23.45-15.45,33.61-25.1c0,0-0.69,0.01-4,2.25c-10.4,12.76-20.79,25.52-31.19,38.28
		c-14.31,17.56-29.09,36.1-33.46,58.33c-4.37,22.23,5.6,49.05,27.27,55.66c18.06,5.51,37.93-4.88,49.24-20
		c11.32-15.11,15.97-34.05,20.36-52.41c0,0,5.54-8.98,4.46-8.45c-3.93,24.78-8.55,49.44-15.45,79.7c-4.84,10.56-3.12,23.68,3.82,33
		c6.94,9.32,18.67,14.69,30.29,14.44c3.96-0.08,7.94-0.78,11.53-2.45c3.74-1.74,6.92-4.47,9.85-7.37
		c13.37-13.23,22.3-30.87,25.06-49.48c0,0,0.02-0.69,0.12-0.67c-3.04,20.34-4.46,41.33,0.46,61.3c4.92,19.97,16.97,38.96,35.3,48.29
		c6.1,3.11,13.01,5.11,19.78,4.15c10-1.42,18.21-9.15,22.83-18.13s6.24-19.16,8.04-29.79c-0.13-5.24-0.26-10.48-0.39-15.71
		l-0.32-1.2c0,0,0-0.6,1.32-0.76c-2.19,17.65-4.35,35.82,0.18,53.02c4.53,17.2,17.4,33.44,34.93,36.44
		c19.03,3.27,37.91-10.21,46.55-27.49c8.64-17.27,9.09-37.42,7.99-56.7c-5.61,29.35,1.32,67.28,23.54,87.25
		c7.9,7.1,22.33,6.99,32.62,4.32c11.35-2.95,17.67-14.92,21.37-26.06c5.68-17.14,8.43-35.24,8.1-53.3
		c0.46,19.14-2.02,38.94,4.47,56.96c6.49,18.01,26.42,33.3,44.24,26.28c10.38-4.09,17.07-14.69,19.47-25.59s1.17-22.23-0.06-33.32
		c-0.44,17.34,1.78,35.36,10.86,50.15c9.07,14.78,26.22,25.54,43.39,23.06c15.16-2.19,27.51-14.12,34.24-27.88
		c6.72-13.76,8.73-29.29,10.44-44.51c1.25,13.97,2.65,28.43,9.62,40.6c6.97,12.17,23.66,25.9,37.28,22.55
		c11.17-2.75,19.68-13.01,19.68-28.81c0-11.51,2.13-22.84,2.07-35.2c2.5,14.39,7.68,27.95,12.44,41.76
		c5.44,15.79,20.4,32.37,35,32.24c17.05-0.16,31.29-24,36.79-40.13c5.51-16.13,4.18-33.69,2.78-50.68
		c13.17,21.6,32.64,52.15,57.7,48.63c16.54-2.32,29.11-17.43,33.06-33.66c3.95-16.23,0.44-39.28-3.97-55.39
		c11.03,20.81,28.39,44.84,50.26,53.59c-0.72-30.58,3.06-69.01,2.34-99.6C1115.07,1319.07,457.09,1054.61,767.09,418.33z"/>
	<path d="M1392.47,1239.9c0.13,2.7,0.26,5.4,0.39,8.1"/>
</g>
<g id="Ebene_38">
</g>
<g id="Ebene_39">
</g>
<g id="Ebene_37">
	<path class="st12" d="M771.75,412.89c17.69-44.35,53.57-120.28,75.32-157.36c5.41-9.22-16.97-13.16-27.66-13.17
		c-28.88-0.04-52.38,22.09-72.56,42.75c-7.2,7.37-14.4,14.74-21.59,22.11c-6.56,6.72-13.22,13.58-17.41,21.98
		c-7.64,15.33-5.55,35.01,5.14,48.39c13.16,16.47,35.47,21.59,54.71,30.21c1.34,0.6,2.84,1.43,3.1,2.87
		C771.08,412.12,768.82,413.48,771.75,412.89z"/>
	<path class="st12" d="M929.69,282.33c-10.73-0.3-20.87,8.81-21.72,19.51c-0.44,5.58,1.33,11.07,3.07,16.38
		c1.67,5.08,3.33,10.15,5,15.23c1.74,5.31,3.55,10.75,6.99,15.16c3.44,4.41,8.89,7.68,14.44,6.97c1.26-0.16,2.67-0.66,3.12-1.85
		c0.32-0.84,0.07-1.78-0.19-2.64c-3.87-13.04-7.75-26.07-11.62-39.11C925.91,302.31,923.1,291.56,929.69,282.33z"/>
	<path class="st12" d="M980.41,227.73c-9.65-1.93-20.24,2.14-26.13,10.02c-7.1,9.5-6.96,22.54-4.96,34.23
		c3.52,20.61,12.42,41.04,28.53,54.37c1.98-8.73-0.93-17.72-3.01-26.42c-3.04-12.7-4.37-25.8-3.95-38.85
		C971.28,248.79,973.73,235.58,980.41,227.73z"/>
	<path class="st12" d="M1071.76,236.83c-4.48-1.29-15.47-2.12-19.95-3.42c-13.48,12.54-2.8,28.1-1.72,43.02
		c1.07,14.92,5.17,29.45,9.81,43.67c7.2-12.16,6.56-27.22,5.99-41.35C1065.32,264.63,1065.36,249.39,1071.76,236.83z"/>
	<path class="st12" d="M1131.84,226.72c-6.09-4.03-14.76-1.97-20.1,3.02c-5.34,4.99-8,12.19-9.82,19.27
		c-5.85,22.76-4.78,47.25,3.05,69.4c3.34-0.05,4.47-4.42,4.66-7.76C1111.26,281.79,1117.09,252.11,1131.84,226.72z"/>
	<path class="st12" d="M1194.58,217.87c-5.85,0.04-12.34,0.33-16.51,4.43c-1.96,1.93-3.15,4.48-4.22,7.02
		c-10.62,25.37-15.7,53.53-16.57,81.02c7.64-0.95,13.25,2.49,15.28-4.93c3.77-13.83,9.54-39.87,13.31-53.69
		C1188.56,241.81,1191.51,231.46,1194.58,217.87z"/>
	<path class="st12" d="M1271.58,250.25c-1.58-5.53-7.12-9.39-12.85-9.9s-11.44,1.91-15.82,5.64c-5.14,4.38-8.58,10.38-11.91,16.25
		c-10.76,18.94-30.45,39.88-29.33,61.63c3.84,1.93,17.28-0.81,20.03-4.12c2.75-3.31,4-7.56,5.59-11.56
		c4.41-11.04,11.79-20.6,19.07-29.99C1254.64,267.52,1263.61,256.32,1271.58,250.25z"/>
	<path class="st12" d="M1296.83,344.36c-1.94-16.68-2.47-33.17,2.35-49.25c2.6-8.66,10.87-17.89,17.46-24.07
		c10.65-10,27.37-9.23,41.63-6.03c20.98,4.71,40.98,13.27,59.66,23.92c8.5,4.85,16.93,10.29,22.93,18.01s11.25,18.21,8.26,27.53
		c-38.57-5.74-27.58-14.38-126.92,5.59C1313.08,341.89,1297.92,353.75,1296.83,344.36z"/>
</g>
<g id="Ebene_18">
	<path class="st13" d="M1312.1,362.64c22.57,20.13,46.54,40.27,78.85,40.27c32.46,0,47.21-75.32,25.79-99.95
		c-41.11-47.29-110.63-29.35-106.35,52.72"/>
</g>
<g id="Ebene_17">
	<path class="st13" d="M788.87,403.96c29.81-7.93,49.26-17.98,73.58-37.34c17.36-13.82-3.9-97.83-39.03-101.19
		c-23.61-2.25-66.03,1.92-89.27,52.65c-24.61,53.72,27.62,79.27,55.02,85.69"/>
</g>
<g id="Ebene_40">
	<path class="st14" d="M1449.07,733.56c-53.48,519.73-378.99,283.37-355.48,379.03c18.13,73.75,226.82,11.53,260.85-8.59
		c140.2-82.89,144.57-191.34,144.57-414.28c0-30.08,17.74-36.19,9.64-34.99C1472.76,660.09,1454.65,679.3,1449.07,733.56z"/>
	<path class="st15" d="M1375.35,305.59c-5.34,4.37-11.23,10.04-10.28,16.87c0.8,5.71,6.06,9.51,10.27,13.46
		c10.4,9.74,16.23,24.17,15.49,38.4c-0.13,2.5-0.44,5.06,0.3,7.45c0.74,2.39,2.93,4.55,5.42,4.3c1.28-0.13,2.42-0.87,3.44-1.65
		c10.49-8.1,13.48-22.58,14.16-35.82c0.62-12.23-0.33-25.27-7.37-35.3C1399.75,303.28,1384.82,297.85,1375.35,305.59z"/>
	<path class="st15" d="M787.63,293.03c-5.19,5.66-8.66,13.1-8.71,20.78s3.59,15.5,10.04,19.68c11.88,7.71,28.77,1.62,41.13,8.54
		c6.11,3.42,10.22,9.57,15.98,13.56c1.72,1.19,3.7,2.21,5.79,2.11c3.11-0.15,5.65-2.82,6.62-5.78c0.97-2.96,0.69-6.17,0.34-9.27
		c-1.41-12.69-3.82-25.52-9.88-36.76c-6.06-11.24-16.25-20.8-28.73-23.52C807.74,279.64,794.18,285.89,787.63,293.03z"/>
	<path class="st15" d="M1561.34,778.36c6.11,94.44,12.21,188.89,18.32,283.33c0.98,15.13,3.93,33.22,17.86,39.21
		c6.36-13.67,5.87-29.41,5.14-44.47c-4.32-88.54-12.66-176.89-24.97-264.68c-0.6-4.28-1.34-8.83-4.24-12.02
		C1570.52,776.54,1564.65,775.71,1561.34,778.36z"/>
	<path class="st15" d="M1422.56,441.55c22.7,6.94,45.83,12.46,69.21,16.52c3.07,0.53,6.28,1.03,9.25,0.1
		c2.97-0.94,5.58-3.78,5.17-6.87c-3.53-4.21-8.89-6.34-14.08-8.15c-18.75-6.53-38.25-10.93-58-13.06
		c-4.57-0.49-9.77-0.66-13.07,2.54C1417.74,435.83,1419.65,443.23,1422.56,441.55z"/>
	<path class="st15" d="M1449.48,502.44c26.68,16.17,57.5,25.46,88.67,26.73c3.7,0.15,8.09-0.17,10-3.34
		c2.47-4.09-1.28-9.12-5.09-12.01c-13.31-10.08-30.19-14.03-46.65-16.79c-9.41-1.58-18.86-2.85-28.32-4.12
		c-5.31-0.71-11.25-1.27-15.49,2.01C1448.36,498.2,1448.86,506.77,1449.48,502.44z"/>
	<path class="st15" d="M1530.91,567.86c18.27,23.43,45.24,42.73,74.94,41.91c3.06-0.08,6.55-0.64,8.17-3.23
		c2.12-3.4-0.39-7.77-3.08-10.75c-16.29-18.1-40.83-26.22-64.66-31.19c-7.35-1.53-16.98-1.77-20.16,5.03
		C1523.51,575.21,1527.35,581.53,1530.91,567.86z"/>
	<path class="st15" d="M1558.9,651.49c13.76,21.54,27.52,43.07,41.28,64.61c4.97,7.79,11.15,16.36,20.34,17.38
		c1.91,0.21,3.95,0.03,5.52-1.06c4.12-2.87,2.4-9.27,0.09-13.73c-15.23-29.4-38.2-54.74-65.96-72.79
		C1558.78,649.65,1559.11,654.01,1558.9,651.49z"/>
</g>
<g id="Ebene_25">
	<path class="st0" d="M1515.08,657.91c-12.9,143.14-25.81,286.27-38.71,429.41c-2.15,23.85-4.3,47.74-4.35,71.69
		c-0.04,20.76,1.51,41.56,5.46,61.93c2.62,13.48,6.69,27.46,16.58,36.98c9.89,9.52,27.21,12.53,37.17,3.07
		c6.11-5.81,8.09-14.63,9.6-22.92c5.83-32.14,8.88-64.78,9.1-97.44c-4.02,27.77-3.12,56.25,2.66,83.71
		c1.67,7.92,3.88,16.06,9.11,22.24c5.23,6.18,14.26,9.84,21.68,6.59c9.37-4.11,11.66-16.14,12.46-26.34
		c1.84-23.45,2.54-46.98,2.08-70.5c-0.3,19.68,2.18,39.39,7.35,58.38c1.54,5.65,7.52,14.59,12.2,18.1
		c8.73,6.55,19.54-21.22,19.54-21.22s7.87-12.18,6.8-23.04c-15.45-156.58-32.84-312.97-52.16-469.12
		c-1.32-10.66-19.16,9.84-21.62-0.62l0,0L1515.08,657.91z"/>
</g>
<g id="Ebene_29">
	<path class="st16" d="M1508.65,654.74c-3.01,58.09-6.02,116.18-9.03,174.27c-1.92,37.09-3.85,74.21-7.98,111.13
		c-3.72,33.23-9.21,66.26-12.22,99.56c-5.34,59.16-2.77,118.72,0.48,178.03c0.67,12.29,1.61,25.29,8.65,35.38
		c7.04,10.1,22.47,15.39,31.96,7.55c4.69-3.87,6.9-9.91,8.73-15.71c17.26-54.71,17.9-113.14,16.54-170.49
		c-2.8-118.21-13.44-236.24-31.83-353.04C1510.27,697.89,1506.24,673.93,1508.65,654.74z"/>
</g>
<g id="Ebene_2">
	<path class="st10" d="M1511.38,651.63c-7.24,102.83-14.49,205.66-21.73,308.49c-5.34,75.85-10.69,151.77-10.94,227.81
		c-0.05,15.87,0.13,31.9,3.73,47.36c3.47,14.89,13.08,31.18,28.36,31.82c10.76,0.45,20.43-7.58,25.23-17.23
		c4.8-9.64,5.71-20.69,6.55-31.43c2.28-29.37,4.57-58.74,6.85-88.11c-1.86,28.54-0.9,57.27,2.87,85.63
		c1.29,9.69,3.12,19.82,9.3,27.39c6.18,7.57,18.12,11.31,25.98,5.49c5.98-4.43,7.67-12.52,8.63-19.89
		c3.14-24.09,3.16-48.6,0.05-72.69c0.25,26.43,1.8,56,21.08,74.08c2.67,2.5,6.12,4.84,9.72,4.16c3.38-0.64,5.69-3.72,7.4-6.71
		c12.45-21.81,10.07-48.7,7.33-73.67c-15.65-142.19-31.3-284.38-47.99-426.55"/>
</g>
<g id="Ebene_27">
	<path class="st17" d="M117.32,86.42c-0.33,21.43-5.33,45.82-3.3,67.16c9.14,96.4,18.68,190.2,27.82,286.6
		c0.41,4.3,1.05,9.18,3.24,12.9c5.74,9.75,26.03,8.91,37.3,7.82c144.28-14.04,290.39-5.55,433.95-25.74
		c10.88-1.53,22.86-3.87,29.44-12.67c5.03-6.73,5.65-15.68,6.04-24.07c4.46-95.19,5.19-190.55,2.2-285.79
		c-0.32-10.1-0.84-20.73-6.23-29.28c-11.47-18.17-37.57-17.85-58.95-15.7c-133.83,13.45-268.87,14.91-402.96,4.33
		C161.4,70.06,132.59,69.49,117.32,86.42z"/>
</g>
<g id="Ebene_31">
	<path class="st18" d="M118.03,86.21c1.61,112.67,8.67,225.26,21.14,337.25c1.27,11.39,3.36,24.14,12.66,30.84
		c7.36,5.3,17.17,5.22,26.23,4.91c142.22-4.78,284.38-11.12,426.46-19.01c15.23-0.85,33.96-4.3,38.41-18.89
		c3.55-11.67,22.45-51.09,10.46-48.87c-29.85,5.53-68.27,5.98-90.65,6.05c-56.09,0.16-112.49-0.3-167.74-9.93
		s-109.75-28.92-154.18-63.16c-21.46-16.54-40.68-36.9-51.61-61.69c-12.35-28-13.34-59.47-19.46-89.45
		C163.63,124.28,154.17,36.33,118.03,86.21z"/>
</g>
<g id="Ebene_4">
	<path class="st10" d="M447.86,446v-0.75V446z"/>
	<path class="st10" d="M448.6,446c12.95-0.25,25.9-0.5,40.34,0.11c20.2,0.76,40.45,0.01,64.28-2.08
		c18.83-2.68,37.65-5.36,56.48-8.05c11.47-1.63,24.43-4.2,32.87-14.37c7.85-14.97,9.49-32.32,10.8-49.17
		c6.56-84.84,8.13-170.07,4.67-255.1c-0.44-10.85-1.16-22.31-7.24-31.31c-11.73-17.35-36.7-17.59-57.6-16.18
		c-128.09,8.63-256.7,9.46-384.88,2.49c-25.35-1.38-51.16-3.02-75.79,3.14c-5.62,1.41-11.52,3.47-14.97,8.13
		c-3.79,5.11-3.71,12.02-3.46,18.38c4.54,113.05,13.79,225.91,27.72,338.2c0.77,6.17,1.81,12.88,6.39,17.09
		c5.17,4.75,13.01,4.69,20.03,4.34c32.53-1.62,65.07-3.23,97.6-4.85"/>
</g>
<g id="Ebene_5">
	<path class="st10" d="M567.59,131.47c1.25,41.58,2.49,83.17,3.74,124.75"/>
	<path class="st10" d="M565.8,312.09c3.6-2.58,7.2-5.17,10.8-7.75c3.23,2.88,3.59,8.49,0.59,11.61c-3,3.12-8.84,2.84-11.36-0.68
		s-0.72-9.31,3.42-10.58c4.14-1.27,8.97,2.78,8.25,7.05c-0.19,1.11-0.71,2.19-1.59,2.89c-2.08,1.64-5.39,0.45-6.85-1.76
		c-1.47-2.21-1.59-5.02-1.58-7.68c2.26-1.36,5.46-0.87,7.21,1.1s1.87,5.2,0.26,7.29c-3.04,0.09-5.91-2.61-5.9-5.65
		s3.03-5.74,6.04-5.31c3.65,0.52,5.66,5.43,3.71,8.55c-1.95,3.12-6.81,3.69-9.69,1.39C566.22,310.24,565.59,305.76,565.8,312.09z"/>
	<path class="st19" d="M464.18,172.43c0-8.86-1.17-18.07-5.96-25.52s-14-12.61-22.59-10.43c-10.7,2.73-16.07,15.66-14.29,26.55
		s8.75,20.13,15.5,28.87c6.31,8.18,12.63,16.37,18.94,24.55c7.44-9.95,15.84-19.17,25.04-27.51c6.35-5.74,13.17-11.17,17.9-18.31
		c4.73-7.14,7.05-16.56,3.46-24.33C498.6,138.54,487.72,134.25,464.18,172.43z"/>
	<path class="st10" d="M466.04,254c0.52,28.14,1.04,56.28,1.56,84.43"/>
	<path class="st10" d="M215.75,130.29c13.35,80.45,21.62,161.74,24.74,243.23"/>
	<path class="st10" d="M238.66,243.33c48.22-0.03,96.44-3.55,144.16-10.51"/>
	<path class="st10" d="M385.71,119.5c-2.87,66.6,0.05,133.45,8.71,199.54"/>
</g>
<g id="Ebene_13">
	<path class="st20" d="M891.41,428.27c-31.87-14.38-71.6-7.67-98.32,14.86c-26.73,22.53-40.02,59.31-35.97,94.03
		c4.06,34.72,24.66,66.72,53.4,86.61c36.86,25.51,88.6,30.34,127.01,7.24c38.41-23.1,58.35-75.2,40.49-116.31
		c-5.78-13.29-14.83-24.84-23.81-36.22C935.42,454.68,912.41,437.75,891.41,428.27z"/>
</g>
<g id="Ebene_26">
	<path class="st0" d="M691.61,630.4c-49.86,17.5-131.31,43.25-182.99,32.21c-11.47-2.45-23.27-6.73-30.64-15.86
		c-5.59-6.93-7.97-15.84-10.21-24.45c-12.62-48.57-17.26-97.46-19.91-147.57c-1.15-21.78-8.45-43.77-11.3-65.39
		c-2.71-20.54-3.8-42.58-12.73-61.27c-3.85-8.07-13.37-14.2-20.66-19.38c-7.29-5.17-17.86-6.68-25.05-1.37
		c-9.74,7.17-8.78,21.76-6.82,33.69c3.72,22.65,7.44,45.3,11.16,67.95c-2.73-32.37-6.93-67.91-30.74-90.01
		c-6.34-5.88-12.44-6.07-21.85-4.5c-7.72,1.29-13.66,0.58-16.68,8.68c-1.94,5.21-6.41,7.81-5.45,13.28
		c4.78,27.39,13.03,54.16,24.49,79.49c-6.57-19.44-13.14-38.87-19.71-58.31c-3.04-8.98-6.31-18.34-13.19-24.85
		c-6.88-6.52-13.6-5.95-20.84,0.17c-6.05,5.11-9.63,10.72-9.91,18.63c-4.09,117.5,10.8,236.11,60.83,350.69
		c17.14,39.26,38.13,91.73,76.97,100.22c16.6,3.63,48.58,12.76,71.22,11.89c81.47-3.13,154.26-37.45,228.52-71.11l-2.4,3.92
		L691.61,630.4z"/>
</g>
<g id="Ebene_30">
	<path class="st22" d="M691.61,771.71c-26.68,19.57-59.49,28.48-91.5,36.85c-42.17,11.03-78.97,27.65-122.52,25.8
		s-98.67-12.02-125.24-46.57c-15.34-19.95-19.55-56.34-27.31-80.28c-34.63-106.84-66.05-217.63-58.43-329.68
		c0.5-7.37,1.24-14.97,4.78-21.46s10.61-11.6,17.93-10.62c5.06,0.68,9.36,4.07,12.8,7.85c13.96,15.3,24.06,61.85,24.06,61.85
		s11.28,63.87,15.75,95.43c6.72,47.35,7.57,90.26,25.14,134.74c17.57,44.48,47.16,85.94,89.38,108.4
		c29.84,15.87,64.28,21.41,98.08,21.32s67.32-5.54,100.75-10.5C670.53,762.59,687.41,760.78,691.61,771.71z"/>
</g>
<g id="Ebene_3">
	<path class="st10" d="M687.66,637.67c-31.59,4.18-82.31,17.55-141.86,25.42c-10.44,1.38-44.43-1.95-53.02-8.04
		c-22.57-16.01-27.92-46.7-31.41-74.15c-7.22-56.76-14.44-113.52-21.66-170.28c-3.41-26.79-7.49-55.18-24.8-75.91
		c-9.48-11.35-27.05-19.55-38.6-10.32c-8.91,7.12-9.04,20.41-8.07,31.78c1.84,21.5,4.79,42.9,8.83,64.09
		c-0.73-12.99-2.32-25.93-4.76-38.71c-3.01-15.78-8.11-32.52-20.98-42.13c-12.88-9.61-35.41-6.92-40.43,8.34
		c-2.43,7.4-0.27,15.44,1.9,22.93c5.71,19.74,11.42,39.49,17.14,59.23c-4.49-18.63-10.12-36.97-16.86-54.91
		c-4.89-13.03-15.02-28.4-28.54-25.08c-10.08,2.48-14.56,14.14-16.54,24.33c-7.82,40.26-1.47,81.76,5.04,122.25
		c13.7,85.09,28.43,171.08,63.08,249.99c7.2,16.38,15.37,32.61,27.22,46.02c25.08,28.37,64.29,40.98,102.15,41.89
		s75.11-8.54,111.8-17.91c22.48-5.75,54.4-20.01,76.35-27.51c14.19-4.85,33.65-14.86,43.64-17.66"/>
</g>
<g id="Ebene_28">
	<path class="st23" d="M1125.9,1742.6c80.85,12.11,164.13-6.16,244.75,7.41c-9.67-21.07-6.88-45.41-8.85-68.51
		c-2.35-27.62-12.14-54.96-30-76.16c-17.86-21.2-44.13-35.76-71.82-37.1c-12.81-0.62-25.62,1.52-37.99,4.91
		c-11.03,3.02-22.03,7.18-30.78,14.55c-8.44,7.11-14.3,16.76-19.61,26.43c-13.56,24.66-24.65,50.59-35.64,76.49
		c-6.79,16-13.69,32.82-11.82,50.13C1124.13,1740.91,1124.13,1741.06,1125.9,1742.6z"/>
	<path class="st24" d="M1125.51,1746.5c51.61,4.89,103.15-0.27,156.56-0.27c30.05,0,59.88,7.17,89.87,5.31
		c1.55-46.23-9.24-92.83-30.95-133.67c-3.99-7.51-8.4-14.9-14.28-21.05c-8.87-9.28-20.71-15.3-33-19.02
		c-23.53-7.12-49.42-6.16-72.36,2.67c-30.49,11.75-60.73,36.16-75.4,65.35C1131.28,1675.01,1126.79,1710.58,1125.51,1746.5z"/>
	<path class="st24" d="M775.98,1746.5c20.03-4.9,48.03,1.37,68.54-0.75c0,0,40.03-3.81,59.76-3.45
		c68.22,1.22,131.47-4.1,199.62-7.49c5.89-17.33,1.54-36.29-2.98-54.03c-3.23-12.71-6.55-25.45-11.55-37.57
		c-13.32-32.23-38.86-59.23-70.31-74.31c-38.54-18.48-84.56-18.63-124.86-4.39c-36.13,12.76-68.4,37-89.28,69.13
		C784.03,1665.76,771.49,1701.12,775.98,1746.5z"/>
	<path class="st24" d="M844.52,1745.75c-2.69,2.48-5.52-2.92-3.95,0.39"/>
</g>
<g id="Ebene_19">
	<polyline class="st25" points="1100.35,1739.19 777.25,1750.27 779.66,1766.16 1101.38,1771.41 	"/>
</g>
<g id="Ebene_20">
	<path class="st25" d="M1125.9,1742.6c0,0-9.27,33.74-3.32,33.54c62.95-2.08,242.88-4.74,242.88-4.74l0.4-14.65l-240.17-6.99"/>
</g>
<g id="Ebene_32">
	<path class="st26" d="M1048.31,1585.7c-37.6-19.99-84.92-8.53-121.25,13.69c-53.64,32.8-92.84,88.38-105.74,149.92
		c-0.95,4.54-1.86,9.32-4.78,12.92c-9.29,11.48-27.82,2.24-42.37,4.81c-1.19-36.39-2.17-74.05,11.59-107.77
		c13.58-33.26,40.93-59.93,72.92-76.27c31.99-16.35,68.37-22.9,104.29-22.86C990.28,1560.17,1018.56,1564.26,1048.31,1585.7z"/>
	<path class="st27" d="M1312.48,1589.09c-28.48-21.33-69.58-24.21-100.76-7.07c-20.4,11.22-35.83,29.59-49.67,48.31
		c-11.69,15.81-22.72,32.35-29.76,50.71c-10.17,26.51-11.56,55.46-12.83,83.83c-0.14,3.05-0.04,6.61,2.4,8.44
		c1.8,1.34,4.26,1.23,6.5,1.06c12.11-0.93,24.22-1.87,36.32-2.8c15.63-38,31.44-76.35,54.93-110.06
		C1243.1,1627.78,1275.25,1598.62,1312.48,1589.09z"/>
</g>
<g id="Ebene_6">
	<path class="st10" d="M776.23,1770.18c-6.91-41.01-0.93-84.39,18.54-121.14c19.47-36.75,52.64-66.41,91.99-79.88
		c22.23-7.61,45.9-10.09,69.39-10.58c23.22-0.49,47.12,1.06,68.23,10.74c23.19,10.62,41.33,30.48,53.3,53
		c11.98,22.52,18.23,47.67,22.16,72.87c4.04,25.89,5.75,52.15,5.1,78.35C996.31,1767.15,887.44,1764.68,776.23,1770.18z"/>
	<path class="st10" d="M775.98,1746.5c108.12-3.54,216.25-7.08,324.37-10.62"/>
	<path class="st10" d="M850.07,1589.02c20.42,27.59,30.8,36.37,47.25,56.79"/>
	<path class="st10" d="M1369.04,1776.18c2.59-41.74-1.74-83.9-12.77-124.24c-3.17-11.6-6.93-23.14-12.93-33.56
		c-20.84-36.14-67.76-52.73-108.47-43.65c-40.71,9.09-74.27,40.43-92.47,77.96s-22.43,80.6-19.82,123.46
		C1204.63,1770.34,1287.15,1771.06,1369.04,1776.18z"/>
	<path class="st10" d="M1122.38,1745.75c20.18,1.16,40.38,1.77,60.58,2.38c62.3,1.88,124.6,3.77,186.9,5.65"/>
	<path class="st10" d="M1225.05,1607.69c22.17-0.38,44.37,0.46,66.45,2.51"/>
	<path class="st10" d="M1225.04,1635.41c18.91,2.05,37.95,2.96,56.97,2.74"/>
</g>
<g id="Ebene_14">
</g>
<g id="Ebene_8">
	<path class="st28" d="M1126.55,524.94c-10.82-15.34-50.37-11.92-74.37,7.75c-30.46,24.96,23.85,68.25,43.76,63.81
		C1116.64,591.87,1148.22,555.64,1126.55,524.94z"/>
	<path class="st29" d="M1095.46,593.07c1.26,23.71,3.53,31.28,4.9,57.02"/>
	<path class="st29" d="M1089.25,718.83c41.2-1.39,52.95-2.65,90.72-40.42"/>
</g>
<g id="Ebene_46">
</g>
<g id="Ebene_47">
	<path class="st30" d="M1096.78,530.58c7.15-2.91,15.92-4.15,22.15,0.42c5.98,4.38,7.61,12.59,7.63,20.01
		c0.01,2.17-0.32,4.74-2.24,5.75c-1.83,0.97-4.18-0.15-5.39-1.83c-1.22-1.68-1.65-3.78-2.32-5.74c-2.53-7.4-9.07-13.3-16.69-15.06
		c-1.43-0.33-3.07-0.64-3.86-1.88C1095.26,531,1096.62,528.83,1096.78,530.58z"/>
	<path class="st31" d="M1085.48,524.62c0,0,12.68-2.82,19.52-4.02c3.88-0.68,8.03-1.34,11.64,0.23c3.32,1.44,5.63,4.56,7.19,7.83
		c4.14,8.68,3.9,18.83,2.22,28.3c-1.06,5.97-3.13,12.48-8.44,15.4c-2.04,1.12-4.75,1.51-6.57,0.06c-1.61-1.28-2-3.55-2.05-5.61
		c-0.05-2.19,0.14-4.38,0.59-6.52c0.7-3.38,2.01-6.63,2.42-10.06s-0.29-7.27-2.92-9.5c-1.94-1.65-4.6-2.16-7.15-2.31
		c-8.4-0.47-16.76,2.42-25.13,1.58c-1.79-0.18-3.69-0.59-4.94-1.88c-1.84-1.89-1.6-5.13-0.09-7.29c1.51-2.16,3.98-3.43,6.45-4.36
		C1080.27,525.69,1084.21,524.84,1085.48,524.62z"/>
</g>
<g id="Ebene_10">
	<path class="st28" d="M872.45,488.5c-9.22-1.49-19.13,2.77-24.38,10.5c-5.55,8.16-5.43,19.95,0.8,27.6
		c6.23,7.65,18.3,10.02,26.65,4.77c5.72-3.6,9.16-9.94,11.16-16.39c2.01-6.48,2.71-13.85-0.56-19.8
		C882.86,489.22,874.52,485.82,872.45,488.5z"/>
	<path class="st28" d="M1250.41,486.31c-4.92-3.38-12.27-2.6-16.37,1.75c-4.35,4.62-4.62,11.83-3,17.97
		c1.87,7.04,6.19,13.73,12.75,16.9c6.56,3.17,15.41,1.93,19.77-3.9c2.52-3.37,3.3-7.71,3.78-11.9c0.32-2.79,0.53-5.67-0.24-8.37
		C1265.03,491.4,1255.9,490.07,1250.41,486.31z"/>
	<path class="st28" d="M1258.03,497.14c-1.49-1.14-3.2-2-5.01-2.5c-0.63,1.56-1.28,3.17-1.23,4.85s0.99,3.45,2.6,3.94
		c1.64,0.5,3.53-0.62,4.08-2.24C1259.03,499.57,1258.52,497.52,1258.03,497.14z"/>
</g>
<g id="Ebene_15">
	<path class="st5" d="M1262.16,496.65c-0.51-1.17-1.84-1.87-3.1-1.78c-1.27,0.09-2.43,0.88-3.12,1.95s-0.93,2.38-0.85,3.65
		c0.06,0.92,0.3,1.86,0.85,2.6c0.82,1.09,2.29,1.63,3.63,1.38c1.34-0.25,2.5-1.25,3.01-2.52c0.21-0.52,0.31-1.08,0.39-1.63
		c0.1-0.73,0.16-1.47,0.03-2.2S1262.53,496.68,1262.16,496.65z"/>
	<path class="st5" d="M932.42,523.97c1.58-0.3,3.15-0.6,4.73-0.9"/>
	<path class="st5" d="M878.52,497.3c-0.74-1.5-1.91-2.84-3.44-3.53c-1.53-0.68-3.44-0.61-4.77,0.41c-1.01,0.78-1.59,1.99-1.97,3.21
		c-0.68,2.22-0.8,4.65-0.09,6.86c0.7,2.21,2.26,4.19,4.35,5.19c1.1,0.52,2.35,0.78,3.54,0.56c2.76-0.5,4.57-3.45,4.59-6.26
		S879.1,498.49,878.52,497.3z"/>
	<path class="st32" d="M851.44,600.03c-30.25-8.73-63.94-13.24-92.34,0.36c-7.66,3.67-14.9,8.77-19.44,15.95
		c-10.96,17.33-2.15,41.83,14.32,54.04s38.09,14.8,58.6,14.87c18.52,0.06,37.76-1.82,53.69-11.26
		c15.93-9.44,27.56-28.19,23.69-46.29C885.96,609,864.32,596.21,851.44,600.03z"/>
	<path class="st33" d="M1345.86,561.32c-21.61-7.82-45.63-8.85-67.83-2.91c-7.74,2.07-15.6,5.2-20.77,11.32
		c-9.47,11.2-6.39,29.28,3.49,40.12c9.88,10.84,24.68,15.75,39.11,18.34c28.18,5.06,58.99,2.36,82.53-13.94
		c3.86-2.67,7.66-5.92,9.19-10.35c1.76-5.08,0.19-10.73-2.25-15.52C1380.76,571.53,1359.71,566.34,1345.86,561.32z"/>
</g>
<g id="Ebene_45">
</g>
</svg>
