<svg width="48" height="48" viewBox="0 0 48 48" fill="none" xmlns="http://www.w3.org/2000/svg">
<path d="M34 19.5H14.5L12.5 20.5L11.5 22V27L12.5 28.5L14 29.5H34L35.5 28.5L36.5 27V22L36 21L34 19.5Z" fill="#E5FFE1"/>
<path fill-rule="evenodd" clip-rule="evenodd" d="M14.4907 20.0833H33.5093C34.8388 20.0833 35.9167 21.1612 35.9167 22.4907V26.3426C35.9167 27.6722 34.8388 28.75 33.5093 28.75H14.4907C13.1612 28.75 12.0833 27.6722 12.0833 26.3426V22.4907C12.0833 21.1612 13.1612 20.0833 14.4907 20.0833ZM11 22.4907C11 20.5629 12.5629 19 14.4907 19H33.5093C35.4371 19 37 20.5629 37 22.4907V26.3426C37 28.2705 35.4371 29.8333 33.5093 29.8333H14.4907C12.5629 29.8333 11 28.2705 11 26.3426V22.4907ZM19.8607 23.0471V22.25H16.4167V23.0471H17.6361V26.5833H18.6413V23.0471H19.8607ZM23.3621 23.0233V22.25H20.5723V26.5833H23.3621V25.8101H21.5836V24.778H22.9457V24.0345H21.5836V23.0233H23.3621ZM25.3008 24.3557L23.9595 22.25H24.9647C25.0302 22.25 25.0778 22.2589 25.1075 22.2768C25.1392 22.2926 25.167 22.3204 25.1908 22.36L26.0533 23.8204C26.0632 23.7946 26.0741 23.7698 26.086 23.746C26.0999 23.7222 26.1147 23.6974 26.1306 23.6716L26.886 22.3749C26.9356 22.2916 27.003 22.25 27.0883 22.25H28.0519L26.6927 24.3111L28.0816 26.5833H27.0764C27.011 26.5833 26.9574 26.5675 26.9158 26.5357C26.8761 26.504 26.8444 26.4664 26.8206 26.4227L25.9522 24.9059C25.9363 24.9495 25.9185 24.9872 25.8986 25.0189L25.0897 26.4227C25.0659 26.4644 25.0341 26.502 24.9945 26.5357C24.9548 26.5675 24.9053 26.5833 24.8458 26.5833H23.9059L25.3008 24.3557ZM31.9118 23.0471V22.25H28.4678V23.0471H29.6872V26.5833H30.6924V23.0471H31.9118Z" fill="#3AAF2A"/>
</svg>
