<svg width="48" height="48" viewBox="0 0 48 48" fill="none" xmlns="http://www.w3.org/2000/svg">
<path d="M30 27.5V18.5L31.5 19.5L32.5 21V29L31.5 31L30 32H20.5L19.5 31.5L19 30H25.5H28.5L30 27.5Z" fill="#E5FFE1"/>
<path fill-rule="evenodd" clip-rule="evenodd" d="M30.9181 19.8339C30.8798 19.8014 30.8405 19.7701 30.8001 19.7401C30.7617 19.7116 30.7224 19.6842 30.6822 19.658V27.2006C30.6822 29.0116 29.1936 30.4797 27.3572 30.4797H19.7092C19.7357 30.5193 19.7635 30.5581 19.7924 30.596C19.8228 30.6358 19.8546 30.6746 19.8876 30.7123C20.3081 31.193 20.9303 31.4973 21.6246 31.4973H29.421C30.6874 31.4973 31.7141 30.4849 31.7141 29.2359V21.547C31.7141 20.8623 31.4055 20.2486 30.9181 19.8339ZM30.6865 18.2636C30.1763 16.9406 28.8785 16 27.3572 16H19.5608C17.5942 16 16 17.5722 16 19.5117V27.2006C16 28.7008 16.9538 29.9808 18.2953 30.484C18.8055 31.807 20.1034 32.7476 21.6246 32.7476H29.421C31.3876 32.7476 32.9818 31.1753 32.9818 29.2359V21.547C32.9818 20.0468 32.0281 18.7668 30.6865 18.2636ZM27.3572 17.4829H19.5608C18.4246 17.4829 17.5036 18.3912 17.5036 19.5117V27.2006C17.5036 28.2584 18.3128 29.1332 19.3537 29.2305C19.3888 29.2337 19.4186 29.2328 19.4589 29.2314C19.4864 29.2305 19.5187 29.2294 19.5608 29.2294H27.3572C28.4934 29.2294 29.4145 28.3211 29.4145 27.2006V19.5117C29.4145 19.4462 29.4113 19.3815 29.4052 19.3177C29.3063 18.2883 28.427 17.4829 27.3572 17.4829Z" fill="#3AAF2A"/>
</svg>
